{"glyphs":{"0":{"ha":788,"x_min":83,"x_max":704,"o":"m 704 303 q 691 188 704 244 q 642 86 678 131 q 547 14 607 42 q 393 -14 486 -14 q 239 14 299 -14 q 144 86 179 42 q 97 188 110 131 q 83 303 83 244 q 97 419 83 363 q 146 522 111 476 q 240 594 181 567 q 393 621 300 621 q 546 594 486 621 q 641 522 606 567 q 690 419 676 476 q 704 303 704 363 m 543 303 q 537 383 543 347 q 514 442 531 418 q 468 479 497 467 q 393 492 439 492 q 318 479 347 492 q 272 442 289 467 q 250 383 256 418 q 244 303 244 347 q 251 224 244 258 q 273 165 257 189 q 318 129 289 142 q 393 117 347 117 q 468 129 439 117 q 514 165 497 142 q 537 224 531 189 q 543 303 543 258 z "},"1":{"ha":474,"x_min":83,"x_max":363,"o":"m 204 0 l 204 449 l 140 428 l 83 428 l 83 525 l 243 608 l 363 608 l 363 0 l 204 0 z "},"2":{"ha":693,"x_min":83,"x_max":610,"o":"m 83 0 l 83 128 q 135 162 103 142 q 206 206 168 182 q 281 258 243 231 q 351 313 319 285 q 402 367 382 340 q 422 417 422 393 q 403 469 422 447 q 328 490 383 490 q 231 470 285 490 q 131 400 178 450 l 88 400 l 88 554 q 149 585 117 572 q 214 606 182 599 q 275 617 246 614 q 328 621 304 621 q 429 609 382 621 q 512 572 476 597 q 567 508 547 547 q 588 417 588 469 q 565 333 588 374 q 506 258 542 293 q 425 192 469 222 q 338 136 381 161 l 338 128 l 418 135 l 610 135 l 610 0 l 83 0 z "},"3":{"ha":669,"x_min":56,"x_max":614,"o":"m 614 49 q 590 -52 614 -10 q 523 -122 565 -94 q 424 -164 481 -150 q 303 -178 367 -178 q 243 -174 275 -178 q 178 -165 211 -171 q 113 -150 144 -158 q 56 -131 82 -142 l 56 31 l 99 31 q 140 4 114 18 q 194 -20 165 -10 q 253 -37 224 -31 q 303 -44 282 -44 q 415 -21 381 -44 q 449 49 449 3 q 433 100 449 78 q 392 138 418 122 q 334 160 367 153 q 268 168 301 168 l 199 168 l 199 306 l 268 306 q 368 328 328 306 q 408 408 408 351 q 303 488 408 488 q 250 481 278 488 q 196 462 222 474 q 148 436 169 450 q 114 408 126 422 l 72 408 l 72 571 q 185 606 125 590 q 303 621 244 621 q 413 606 363 621 q 498 564 463 592 q 553 497 533 536 q 574 408 574 458 q 548 312 574 351 q 482 249 522 272 l 482 240 q 579 163 544 214 q 614 49 614 111 z "},"4":{"ha":753,"x_min":56,"x_max":697,"o":"m 575 31 l 575 -178 l 417 -178 l 417 31 l 56 31 l 56 128 l 456 608 l 575 608 l 575 168 l 697 168 l 697 31 l 575 31 m 415 367 l 407 367 l 251 176 l 251 168 l 415 168 l 415 367 z "},"5":{"ha":731,"x_min":56,"x_max":647,"o":"m 378 464 l 349 335 q 443 306 396 326 q 528 253 490 286 q 591 175 567 221 q 615 71 615 129 q 595 -19 615 25 q 535 -99 575 -64 q 435 -156 494 -135 q 297 -178 375 -178 q 178 -165 240 -178 q 56 -125 115 -153 l 56 35 l 99 35 q 133 6 111 21 q 183 -19 156 -8 q 240 -38 210 -31 q 297 -46 269 -46 q 368 -35 339 -46 q 415 -8 397 -25 q 442 29 433 8 q 450 71 450 50 q 381 172 450 133 q 194 213 313 211 l 165 258 l 247 608 l 647 608 l 647 464 l 378 464 z "},"6":{"ha":775,"x_min":83,"x_max":692,"o":"m 692 247 q 670 140 692 189 q 610 58 649 92 q 516 5 571 24 q 393 -14 461 -14 q 245 10 304 -14 q 150 73 186 35 q 99 158 114 111 q 83 247 83 204 q 98 397 83 326 q 144 533 113 468 q 225 660 175 599 q 346 783 275 722 l 521 783 l 521 740 q 386 627 444 696 q 293 485 328 558 q 346 501 319 496 q 396 506 372 506 q 524 485 468 506 q 617 431 579 465 q 673 349 654 396 q 692 247 692 301 m 526 247 q 496 335 526 297 q 396 372 465 372 q 325 367 353 372 q 265 343 297 361 q 253 293 258 322 q 249 247 249 264 q 256 202 249 225 q 281 161 264 179 q 326 131 299 143 q 393 119 353 119 q 458 131 432 119 q 499 159 483 142 q 520 199 514 176 q 526 247 526 222 z "},"7":{"ha":740,"x_min":56,"x_max":657,"o":"m 314 -178 l 164 -178 l 164 -133 l 440 475 l 435 482 l 367 471 l 56 471 l 56 608 l 657 608 l 657 565 l 314 -178 z "},"8":{"ha":764,"x_min":83,"x_max":681,"o":"m 681 217 q 659 113 681 157 q 598 42 638 69 q 503 0 558 14 q 381 -14 447 -14 q 264 1 318 -14 q 169 44 210 15 q 106 115 129 72 q 83 217 83 158 q 94 278 83 249 q 122 332 104 307 q 162 377 140 357 q 207 414 183 397 q 133 492 156 451 q 111 582 111 533 q 131 673 111 632 q 185 742 150 714 q 270 786 221 771 q 381 801 319 801 q 497 786 444 801 q 587 742 550 771 q 644 672 624 713 q 664 582 664 632 q 634 475 664 521 q 563 399 604 429 q 649 320 617 367 q 681 217 681 274 m 499 582 q 473 646 499 624 q 381 668 447 668 q 301 645 325 668 q 276 582 276 622 q 313 516 276 550 q 429 463 350 482 q 499 582 499 510 m 515 217 q 470 289 515 257 q 338 343 425 321 q 272 287 297 321 q 247 217 247 253 q 258 175 247 193 q 288 144 269 157 q 330 126 306 132 q 381 119 354 119 q 479 143 443 119 q 515 217 515 167 z "},"9":{"ha":775,"x_min":83,"x_max":692,"o":"m 692 360 q 677 210 692 281 q 631 73 663 139 q 550 -55 600 7 q 429 -178 500 -117 l 254 -178 l 254 -135 q 389 -20 331 -89 q 482 122 447 49 q 429 106 456 111 q 379 101 403 101 q 251 122 306 101 q 158 176 196 142 q 102 258 121 211 q 83 360 83 306 q 105 467 83 418 q 165 549 126 515 q 259 602 204 583 q 382 621 314 621 q 530 597 471 621 q 625 534 589 572 q 676 449 661 496 q 692 360 692 403 m 526 360 q 494 451 526 415 q 382 488 461 488 q 317 476 343 488 q 276 448 292 465 q 255 408 261 431 q 249 360 249 385 q 279 272 249 310 q 379 235 310 235 q 450 240 422 235 q 510 264 478 246 q 522 314 517 285 q 526 360 526 343 z "},"\r":{"ha":0,"x_min":0,"x_max":0,"o":""}," ":{"ha":361,"x_min":0,"x_max":0,"o":""},"!":{"ha":331,"x_min":83,"x_max":256,"o":"m 231 197 l 106 197 l 89 339 l 89 608 l 247 608 l 247 339 l 231 197 m 256 72 q 231 11 256 36 q 169 -14 206 -14 q 108 11 133 -14 q 83 72 83 36 q 108 133 83 108 q 169 158 133 158 q 231 133 206 158 q 256 72 256 108 z "},"\"":{"ha":506,"x_min":83,"x_max":422,"o":"m 388 314 l 310 314 l 276 465 l 276 608 l 422 608 l 422 465 l 388 314 m 194 314 l 117 314 l 83 465 l 83 608 l 229 608 l 229 465 l 194 314 z "},"#":{"ha":703,"x_min":56,"x_max":647,"o":"m 488 154 l 451 0 l 324 0 l 360 154 l 271 154 l 235 0 l 107 0 l 143 154 l 56 154 l 56 271 l 171 271 l 186 339 l 56 339 l 56 456 l 213 456 l 249 608 l 376 608 l 340 456 l 429 456 l 465 608 l 593 608 l 557 456 l 647 456 l 647 339 l 529 339 l 514 271 l 647 271 l 647 154 l 488 154 m 313 339 l 297 271 l 388 271 l 403 339 l 313 339 z "},"$":{"ha":661,"x_min":56,"x_max":606,"o":"m 606 171 q 548 56 606 101 q 394 0 490 11 l 394 -122 l 303 -122 l 303 -1 q 177 22 236 4 q 74 57 118 39 l 56 208 l 96 208 q 192 156 136 182 q 303 122 249 131 l 303 244 q 226 274 265 257 q 155 313 186 290 q 103 367 124 336 q 83 439 83 397 q 142 553 83 506 q 303 607 200 600 l 303 694 l 394 694 l 394 604 q 494 584 450 597 q 567 560 538 571 l 583 407 l 543 407 q 473 448 511 429 q 394 478 435 467 l 394 356 q 467 328 429 343 q 535 292 504 313 q 585 242 565 271 q 606 171 606 213 m 303 485 q 269 476 281 482 q 251 463 257 469 q 245 449 246 456 q 244 439 244 442 q 262 413 244 425 q 303 389 279 400 l 303 485 m 444 171 q 431 193 444 183 q 394 213 418 203 l 394 125 q 433 147 422 133 q 444 171 444 160 z "},"%":{"ha":944,"x_min":56,"x_max":889,"o":"m 889 169 q 881 110 889 140 q 855 55 874 79 q 803 15 836 31 q 719 0 771 0 q 635 15 668 0 q 583 55 603 31 q 556 110 564 79 q 549 169 549 140 q 556 230 549 200 q 583 284 564 260 q 636 323 603 308 q 719 338 669 338 q 803 323 769 338 q 855 284 836 308 q 881 230 874 260 q 889 169 889 200 m 278 -21 l 203 -21 l 203 6 l 640 636 l 711 636 l 711 603 l 278 -21 m 396 454 q 388 394 396 425 q 362 340 381 364 q 310 300 343 315 q 226 285 278 285 q 142 300 175 285 q 90 340 110 315 q 63 394 71 364 q 56 454 56 425 q 63 515 56 485 q 90 569 71 544 q 143 608 110 593 q 226 622 176 622 q 310 608 276 622 q 362 569 343 593 q 388 515 381 544 q 396 454 396 485 m 782 169 q 770 233 782 214 q 719 251 758 251 q 667 233 679 251 q 656 169 656 214 q 667 106 656 125 q 719 88 679 88 q 770 106 758 88 q 782 169 782 125 m 289 454 q 277 517 289 499 q 226 536 265 536 q 174 517 186 536 q 163 454 163 499 q 175 391 163 410 q 226 372 188 372 q 277 391 265 372 q 289 454 289 410 z "},"&":{"ha":825,"x_min":56,"x_max":825,"o":"m 825 -21 q 790 -37 806 -31 q 760 -47 775 -43 q 731 -53 746 -51 q 696 -54 715 -54 q 640 -44 667 -54 q 591 -19 614 -35 q 547 15 568 -4 q 510 53 526 33 q 419 5 469 24 q 299 -14 369 -14 q 197 1 242 -14 q 120 43 151 17 q 72 102 89 69 q 56 171 56 135 q 67 238 56 207 q 100 295 79 269 q 149 342 121 321 q 207 381 176 364 q 170 432 188 403 q 153 494 153 461 q 201 604 153 563 q 331 646 250 646 q 462 602 414 646 q 510 494 510 558 q 500 451 510 472 q 476 410 490 429 q 444 376 461 392 q 410 350 426 361 l 517 235 q 549 274 533 251 q 578 319 565 296 q 601 367 592 343 q 618 410 611 390 l 769 410 l 769 367 q 743 316 760 344 q 705 256 726 288 q 658 194 683 225 q 607 139 633 164 q 624 121 613 132 q 648 98 635 110 q 675 78 661 86 q 700 69 689 69 q 749 79 733 69 q 782 103 765 89 l 825 103 l 825 -21 m 368 494 q 361 524 368 510 q 331 539 354 539 q 304 526 313 539 q 296 499 296 514 q 310 463 296 479 q 332 436 324 446 q 360 465 351 447 q 368 494 368 482 m 294 292 q 267 273 282 283 q 240 249 253 263 q 220 217 228 235 q 213 178 213 199 q 238 126 213 151 q 306 100 263 100 q 370 112 346 100 q 425 147 394 124 l 294 292 z "},"'":{"ha":326,"x_min":83,"x_max":243,"o":"m 208 307 l 117 307 l 83 472 l 83 608 l 243 608 l 243 472 l 208 307 z "},"(":{"ha":436,"x_min":83,"x_max":381,"o":"m 282 -210 q 192 -99 229 -160 q 131 29 154 -37 q 95 165 107 96 q 83 304 83 235 q 95 442 83 372 q 131 579 107 513 q 192 707 154 646 q 282 818 229 768 l 381 818 l 381 775 q 258 558 301 671 q 215 304 215 446 q 258 50 215 163 q 381 -167 301 -62 l 381 -210 l 282 -210 z "},")":{"ha":436,"x_min":56,"x_max":353,"o":"m 353 304 q 341 165 353 235 q 306 29 329 96 q 244 -99 282 -37 q 154 -210 206 -160 l 56 -210 l 56 -167 q 178 50 135 -62 q 221 304 221 163 q 178 558 221 446 q 56 775 135 671 l 56 818 l 154 818 q 244 707 206 768 q 306 579 282 646 q 341 442 329 513 q 353 304 353 372 z "},"*":{"ha":654,"x_min":83,"x_max":571,"o":"m 439 713 l 569 629 l 528 564 l 381 625 l 365 483 l 281 483 l 269 624 l 126 564 l 85 629 l 215 713 l 83 796 l 126 860 l 272 799 l 288 942 l 372 942 l 383 799 l 528 860 l 571 796 l 439 713 z "},"+":{"ha":788,"x_min":88,"x_max":700,"o":"m 463 263 l 463 -8 l 328 -8 l 328 263 l 88 263 l 88 399 l 328 399 l 328 675 l 463 675 l 463 399 l 700 399 l 700 263 l 463 263 z "},",":{"ha":400,"x_min":83,"x_max":317,"o":"m 317 -3 q 290 -126 317 -68 q 218 -215 263 -183 l 193 -233 l 128 -160 l 149 -140 q 176 -104 165 -125 q 186 -60 186 -83 q 175 -26 186 -36 q 112 1 140 -24 q 83 67 83 26 q 110 134 83 107 q 176 161 136 161 q 242 145 215 161 q 285 105 268 129 q 309 52 301 81 q 317 -3 317 24 z "},"-":{"ha":475,"x_min":56,"x_max":419,"o":"m 56 229 l 56 381 l 419 381 l 419 229 l 56 229 z "},".":{"ha":353,"x_min":83,"x_max":269,"o":"m 269 79 q 242 13 269 40 q 176 -14 215 -14 q 110 13 138 -14 q 83 79 83 40 q 110 145 83 118 q 176 172 138 172 q 242 145 215 172 q 269 79 269 118 z "},"/":{"ha":458,"x_min":28,"x_max":431,"o":"m 144 -89 l 28 -89 l 28 -46 l 314 844 l 431 844 l 431 801 l 144 -89 z "},":":{"ha":353,"x_min":83,"x_max":269,"o":"m 269 515 q 242 449 269 476 q 176 422 215 422 q 110 449 138 422 q 83 515 83 476 q 110 581 83 554 q 176 608 138 608 q 242 581 215 608 q 269 515 269 554 m 269 79 q 242 13 269 40 q 176 -14 215 -14 q 110 13 138 -14 q 83 79 83 40 q 110 145 83 118 q 176 172 138 172 q 242 145 215 172 q 269 79 269 118 z "},";":{"ha":400,"x_min":83,"x_max":317,"o":"m 272 515 q 245 449 272 476 q 179 422 218 422 q 113 449 140 422 q 86 515 86 476 q 113 581 86 554 q 179 608 140 608 q 245 581 218 608 q 272 515 272 554 m 317 -3 q 290 -126 317 -68 q 218 -215 263 -183 l 193 -233 l 128 -160 l 149 -140 q 176 -104 165 -125 q 186 -60 186 -83 q 175 -26 186 -36 q 112 1 140 -24 q 83 67 83 26 q 110 134 83 107 q 176 161 136 161 q 242 145 215 161 q 285 105 268 129 q 309 52 301 81 q 317 -3 317 24 z "},"<":{"ha":788,"x_min":99,"x_max":689,"o":"m 99 271 l 99 392 l 689 660 l 689 518 l 264 331 l 264 328 l 689 140 l 689 1 l 99 271 z "},"=":{"ha":788,"x_min":86,"x_max":700,"o":"m 86 411 l 86 546 l 700 546 l 700 411 l 86 411 m 86 90 l 86 225 l 700 225 l 700 90 l 86 90 z "},">":{"ha":788,"x_min":99,"x_max":689,"o":"m 99 0 l 99 142 l 524 328 l 524 331 l 99 519 l 99 660 l 689 390 l 689 269 l 99 0 z "},"?":{"ha":571,"x_min":83,"x_max":488,"o":"m 488 465 q 464 389 488 418 q 410 338 440 360 q 353 297 381 315 q 315 256 325 279 l 296 207 l 196 207 l 188 258 q 213 322 188 297 q 267 367 238 347 q 322 406 297 386 q 347 456 347 425 q 323 500 347 483 q 267 517 299 517 q 198 495 231 517 q 132 440 165 474 l 83 440 l 83 575 q 170 608 128 596 q 267 621 213 621 q 340 613 301 621 q 412 586 379 604 q 466 538 444 568 q 488 465 488 508 m 326 72 q 301 11 326 36 q 240 -14 276 -14 q 179 11 204 -14 q 154 72 154 36 q 179 133 154 108 q 240 158 204 158 q 301 133 276 158 q 326 72 326 108 z "},"@":{"ha":924,"x_min":56,"x_max":868,"o":"m 868 335 q 847 231 868 276 q 792 156 825 186 q 719 109 758 125 q 643 93 679 93 q 558 110 583 93 q 517 151 532 126 l 508 151 q 463 110 488 128 q 390 93 438 93 q 335 105 363 93 q 287 139 308 117 q 252 192 265 161 q 239 263 239 224 q 255 344 239 304 q 299 416 271 385 q 367 466 328 447 q 454 485 407 485 l 629 485 l 644 469 l 608 263 q 607 244 607 257 q 615 210 607 226 q 651 194 624 194 q 721 233 692 194 q 750 335 750 271 q 676 490 750 438 q 478 542 603 542 q 369 525 424 542 q 271 476 315 508 q 199 394 226 443 q 171 281 171 344 q 197 179 171 225 q 265 101 222 133 q 363 51 307 69 q 479 33 418 33 q 541 36 515 33 q 588 44 567 39 q 626 55 608 49 q 663 69 643 61 l 706 69 l 706 -24 q 590 -55 643 -49 q 479 -61 538 -61 q 319 -37 396 -61 q 185 32 243 -12 q 91 140 126 76 q 56 281 56 203 q 94 435 56 368 q 194 549 133 503 q 331 619 256 594 q 478 643 406 643 q 644 617 571 643 q 767 549 717 592 q 842 450 817 506 q 868 335 868 394 m 458 382 q 428 373 443 382 q 399 349 413 364 q 378 311 386 333 q 369 263 369 289 q 384 214 369 229 q 422 199 399 199 q 451 207 438 199 q 478 228 465 215 l 504 382 l 458 382 z "},"A":{"ha":856,"x_min":56,"x_max":800,"o":"m 629 0 l 581 104 l 271 104 l 224 0 l 56 0 l 56 43 l 344 608 l 507 608 l 800 43 l 800 0 l 629 0 m 431 435 l 422 435 l 332 235 l 519 235 l 431 435 z "},"B":{"ha":824,"x_min":111,"x_max":740,"o":"m 740 315 q 718 192 740 250 q 651 92 696 135 q 539 25 606 50 q 383 0 472 0 l 111 0 l 111 878 l 271 878 l 271 610 l 383 610 q 516 591 451 610 q 631 535 581 572 q 710 442 681 497 q 740 315 740 388 m 572 315 q 554 391 572 360 q 508 442 536 422 q 443 469 479 461 q 371 478 407 478 l 271 478 l 271 132 l 371 132 q 519 180 465 132 q 572 315 572 228 z "},"C":{"ha":832,"x_min":83,"x_max":749,"o":"m 749 31 q 597 -6 660 1 q 481 -14 533 -14 q 331 9 403 -14 q 203 74 258 32 q 116 174 149 115 q 83 303 83 232 q 116 433 83 374 q 203 533 149 492 q 330 598 258 575 q 481 621 401 621 q 597 614 533 621 q 749 576 660 607 l 749 431 l 706 431 q 481 490 578 490 q 392 477 433 490 q 319 440 350 464 q 269 381 288 417 q 251 303 251 346 q 269 224 251 258 q 319 166 288 190 q 392 129 350 142 q 481 117 433 117 q 706 176 578 117 l 749 176 l 749 31 z "},"D":{"ha":990,"x_min":83,"x_max":907,"o":"m 907 304 q 877 184 907 242 q 792 83 847 126 q 662 13 738 39 q 494 -14 586 -14 q 327 13 403 -14 q 197 83 251 39 q 113 184 143 126 q 83 304 83 242 q 96 376 83 335 q 136 458 108 417 q 208 534 164 499 q 318 589 253 569 l 364 501 l 350 464 q 314 438 332 453 q 282 402 296 422 q 260 358 268 382 q 251 304 251 333 q 269 233 251 267 q 320 174 288 200 q 397 134 353 149 q 494 119 442 119 q 592 134 547 119 q 669 174 636 149 q 720 233 701 200 q 739 304 739 267 q 715 388 739 351 q 650 450 692 424 l 199 725 l 292 856 l 749 568 q 865 453 824 522 q 907 304 907 383 z "},"E":{"ha":860,"x_min":83,"x_max":776,"o":"m 776 319 q 774 282 776 304 q 767 244 771 260 l 263 244 q 289 198 269 221 q 338 156 308 175 q 403 126 367 138 q 478 115 439 115 q 593 131 529 115 q 721 176 657 147 l 764 176 l 764 31 q 603 -7 675 0 q 478 -14 531 -14 q 327 10 399 -14 q 201 76 256 33 q 115 178 147 119 q 83 308 83 238 q 107 435 83 378 q 176 534 131 493 q 285 598 221 575 q 429 621 349 621 q 552 603 490 621 q 664 550 614 586 q 745 457 714 514 q 776 319 776 400 m 603 375 q 549 457 590 422 q 429 492 507 492 q 310 458 351 492 q 256 375 268 424 l 603 375 z "},"F":{"ha":721,"x_min":111,"x_max":638,"o":"m 269 467 l 269 161 l 593 161 l 593 21 l 269 21 l 269 -278 l 111 -278 l 111 608 l 638 608 l 638 467 l 269 467 z "},"G":{"ha":865,"x_min":83,"x_max":754,"o":"m 596 -111 l 596 -12 q 542 -19 572 -17 q 476 -22 511 -22 q 326 1 397 -22 q 201 66 256 24 q 115 167 147 108 q 83 299 83 226 q 116 430 83 371 q 203 531 149 489 q 330 597 258 574 q 481 621 401 621 q 597 614 533 621 q 749 576 660 607 l 749 428 l 706 428 q 481 489 579 489 q 392 476 433 489 q 319 438 350 463 q 269 378 288 414 q 251 299 251 343 q 269 219 251 254 q 317 160 286 185 q 388 123 347 136 q 476 110 429 110 q 544 117 513 110 q 596 133 576 125 l 596 340 l 754 340 l 754 -111 l 596 -111 z "},"H":{"ha":893,"x_min":111,"x_max":810,"o":"m 810 314 q 792 201 810 253 q 748 110 774 150 q 694 43 722 71 q 649 0 667 15 l 488 0 l 488 43 q 542 95 514 67 q 594 158 571 124 q 633 231 618 192 q 647 314 647 269 q 638 376 647 346 q 606 429 628 406 q 551 467 585 453 q 471 481 518 481 q 401 470 433 481 q 344 444 369 460 q 299 410 318 428 q 269 379 281 393 l 269 0 l 111 0 l 111 878 l 269 878 l 269 638 l 264 556 l 272 556 q 358 601 308 581 q 471 621 408 621 q 624 595 560 621 q 729 526 688 569 q 790 428 771 483 q 810 314 810 374 z "},"I":{"ha":381,"x_min":111,"x_max":269,"o":"m 111 0 l 111 608 l 269 608 l 269 0 l 111 0 z "},"J":{"ha":372,"x_min":28,"x_max":261,"o":"m 261 -79 q 124 -250 261 -208 l 86 -261 l 28 -161 q 81 -133 60 -146 q 103 -79 103 -119 l 103 608 l 261 608 l 261 -79 z "},"K":{"ha":757,"x_min":111,"x_max":729,"o":"m 565 0 l 276 210 l 268 210 l 268 0 l 111 0 l 111 878 l 268 878 l 268 401 l 276 401 l 557 608 l 721 608 l 721 565 l 378 311 l 378 303 l 729 43 l 729 0 l 565 0 z "},"L":{"ha":683,"x_min":111,"x_max":656,"o":"m 111 0 l 111 608 l 269 608 l 269 135 l 656 135 l 656 0 l 111 0 z "},"M":{"ha":1301,"x_min":83,"x_max":1218,"o":"m 1218 310 q 1206 224 1218 268 q 1172 138 1193 179 q 1124 60 1151 96 q 1067 0 1096 25 l 906 0 l 906 43 q 958 85 931 57 q 1008 148 985 113 q 1045 225 1031 183 q 1060 310 1060 267 q 1013 442 1060 394 q 882 490 967 490 q 808 476 838 490 q 762 439 779 463 q 737 385 744 415 q 729 322 729 354 l 729 0 l 572 0 l 572 322 q 567 378 572 349 q 545 433 561 408 q 499 474 529 458 q 418 490 468 490 q 288 442 333 490 q 242 310 242 394 q 256 225 242 267 q 294 148 271 183 q 344 85 317 113 q 396 43 371 57 l 396 0 l 233 0 q 177 60 204 25 q 129 138 150 96 q 96 224 108 179 q 83 310 83 268 q 106 438 83 381 q 173 537 129 496 q 278 599 217 578 q 418 621 340 621 q 558 594 506 621 q 646 532 611 568 l 654 532 q 743 594 683 567 q 882 621 803 621 q 1022 599 960 621 q 1127 537 1083 578 q 1194 438 1171 496 q 1218 310 1218 381 z "},"N":{"ha":919,"x_min":111,"x_max":808,"o":"m 689 0 l 271 389 l 263 389 l 263 0 l 111 0 l 111 608 l 235 608 l 649 225 l 657 225 l 657 608 l 808 608 l 808 0 l 689 0 z "},"O":{"ha":990,"x_min":83,"x_max":907,"o":"m 907 304 q 877 184 907 242 q 792 83 847 126 q 662 13 738 39 q 494 -14 586 -14 q 327 13 403 -14 q 197 83 251 39 q 113 184 143 126 q 83 304 83 242 q 114 427 83 369 q 199 528 144 485 q 330 596 254 571 q 494 621 406 621 q 659 596 583 621 q 790 528 735 571 q 876 427 844 485 q 907 304 907 369 m 739 304 q 721 375 739 342 q 670 433 703 408 q 592 473 638 458 q 494 488 547 488 q 397 473 442 488 q 319 433 351 458 q 269 375 288 408 q 251 304 251 342 q 269 233 251 267 q 320 174 288 200 q 397 134 353 149 q 494 119 442 119 q 592 134 547 119 q 669 174 636 149 q 720 233 701 200 q 739 304 739 267 z "},"P":{"ha":819,"x_min":111,"x_max":736,"o":"m 736 313 q 714 185 736 244 q 649 82 692 126 q 546 12 607 38 q 408 -14 485 -14 q 332 -7 367 -14 q 271 11 297 0 l 263 11 l 271 -64 l 271 -269 l 111 -269 l 111 608 l 386 608 q 538 587 472 608 q 647 526 603 565 q 714 433 692 488 q 736 313 736 379 m 568 313 q 521 437 568 397 q 386 476 474 476 l 271 476 l 271 165 q 322 139 289 153 q 408 125 356 125 q 466 135 438 125 q 517 169 494 146 q 554 227 540 192 q 568 313 568 263 z "},"Q":{"ha":994,"x_min":83,"x_max":911,"o":"m 782 -100 l 671 15 q 588 -6 632 1 q 494 -14 543 -14 q 327 13 403 -14 q 197 83 251 39 q 113 184 143 126 q 83 304 83 242 q 114 427 83 369 q 199 528 144 485 q 330 596 254 571 q 494 621 406 621 q 659 596 583 621 q 790 528 735 571 q 876 427 844 485 q 907 304 907 369 q 874 178 907 239 q 783 74 840 118 l 911 -58 l 911 -100 l 782 -100 m 739 304 q 721 375 739 342 q 670 433 703 408 q 592 473 638 458 q 494 488 547 488 q 397 473 442 488 q 319 433 351 458 q 269 375 288 408 q 251 304 251 342 q 269 233 251 267 q 320 174 288 200 q 397 134 353 149 q 494 119 442 119 q 563 126 528 119 l 483 208 l 483 250 l 613 250 l 678 182 q 722 238 706 207 q 739 304 739 269 z "},"R":{"ha":844,"x_min":111,"x_max":817,"o":"m 640 0 l 418 178 q 381 199 401 192 q 333 207 361 207 l 269 207 l 269 0 l 111 0 l 111 608 l 460 608 q 648 553 582 608 q 714 415 714 499 q 675 306 714 349 q 581 239 636 263 l 581 231 l 817 43 l 817 0 l 640 0 m 546 408 q 524 462 546 443 q 468 481 501 481 l 269 481 l 269 335 l 468 335 q 522 355 497 335 q 546 408 546 375 z "},"S":{"ha":739,"x_min":83,"x_max":656,"o":"m 656 165 q 635 92 656 125 q 579 35 615 58 q 492 -2 543 11 q 378 -15 440 -15 q 226 6 299 -15 q 101 47 154 26 l 83 204 l 126 204 q 182 172 151 189 q 245 142 213 156 q 312 119 278 128 q 378 111 346 111 q 431 117 410 111 q 464 131 451 122 q 482 149 476 139 q 488 165 488 158 q 460 197 488 183 q 390 226 432 211 q 299 258 349 240 q 208 300 250 275 q 139 360 167 325 q 111 444 111 394 q 129 514 111 482 q 181 569 147 546 q 262 607 214 593 q 369 621 310 621 q 513 603 449 621 q 615 571 576 586 l 633 411 l 590 411 q 488 469 546 443 q 369 494 431 494 q 318 488 336 494 q 291 474 300 482 q 281 457 282 465 q 279 444 279 449 q 298 417 279 431 q 342 392 317 404 q 392 372 367 381 q 429 360 417 364 q 506 331 465 347 q 579 293 546 315 q 634 240 613 271 q 656 165 656 208 z "},"T":{"ha":763,"x_min":28,"x_max":735,"o":"m 461 471 l 461 0 l 303 0 l 303 471 l 28 471 l 28 608 l 735 608 l 735 471 l 461 471 z "},"U":{"ha":807,"x_min":83,"x_max":724,"o":"m 724 271 q 706 160 724 213 q 651 70 689 108 q 551 9 613 32 q 403 -14 490 -14 q 254 9 315 -14 q 156 70 193 32 q 101 160 118 108 q 83 271 83 213 l 83 608 l 242 608 l 242 271 q 249 215 242 242 q 274 167 256 188 q 324 134 293 146 q 403 122 354 122 q 482 134 450 122 q 532 167 514 146 q 558 215 550 188 q 565 271 565 242 l 565 608 l 724 608 l 724 271 z "},"V":{"ha":864,"x_min":28,"x_max":836,"o":"m 490 -6 l 356 -6 l 28 565 l 28 608 l 181 608 l 421 178 l 429 178 l 685 608 l 836 608 l 836 565 l 490 -6 z "},"W":{"ha":1243,"x_min":28,"x_max":1215,"o":"m 949 -6 l 810 -6 l 626 400 l 618 400 l 432 -6 l 293 -6 l 28 565 l 28 608 l 181 608 l 360 203 l 368 203 l 551 608 l 690 608 l 875 203 l 883 203 l 1061 608 l 1215 608 l 1215 565 l 949 -6 z "},"X":{"ha":738,"x_min":28,"x_max":710,"o":"m 549 0 l 369 215 l 361 215 l 182 0 l 28 0 l 28 43 l 257 313 l 257 321 l 64 565 l 64 608 l 222 608 l 361 415 l 369 415 l 507 608 l 667 608 l 667 565 l 474 321 l 474 313 l 710 43 l 710 0 l 549 0 z "},"Y":{"ha":810,"x_min":28,"x_max":782,"o":"m 357 -278 l 207 -278 l 207 -235 l 318 -14 l 28 565 l 28 608 l 186 608 l 401 163 l 410 163 l 625 608 l 782 608 l 782 565 l 357 -278 z "},"Z":{"ha":735,"x_min":83,"x_max":679,"o":"m 83 0 l 83 99 l 425 472 l 425 481 l 92 481 l 92 524 l 117 608 l 649 608 l 649 497 l 308 136 l 308 128 l 679 128 l 679 0 l 83 0 z "},"[":{"ha":439,"x_min":83,"x_max":356,"o":"m 83 -210 l 83 818 l 356 818 l 356 697 l 228 697 l 228 -89 l 356 -89 l 356 -210 l 83 -210 z "},"\\":{"ha":397,"x_min":28,"x_max":453,"o":"m 317 -89 l 28 801 l 28 844 l 164 844 l 453 -46 l 453 -89 l 317 -89 z "},"]":{"ha":439,"x_min":83,"x_max":356,"o":"m 83 -210 l 83 -89 l 211 -89 l 211 697 l 83 697 l 83 818 l 356 818 l 356 -210 l 83 -210 z "},"^":{"ha":788,"x_min":40,"x_max":746,"o":"m 579 374 l 392 749 l 388 749 l 206 374 l 40 374 l 329 906 l 451 906 l 746 374 l 579 374 z "},"_":{"ha":774,"x_min":0,"x_max":774,"o":"m 0 -218 l 0 -86 l 774 -86 l 774 -218 l 0 -218 z "},"`":{"ha":428,"x_min":56,"x_max":372,"o":"m 275 671 l 56 863 l 56 906 l 219 906 l 372 714 l 372 671 l 275 671 z "},"a":{"ha":818,"x_min":35,"x_max":763,"o":"m 613 0 l 546 122 l 119 -50 l 35 47 l 333 522 l 297 586 l 297 629 l 456 629 l 763 43 l 763 0 l 613 0 m 407 383 l 399 383 l 207 114 l 213 108 l 486 238 l 407 383 z "},"b":{"ha":807,"x_min":111,"x_max":751,"o":"m 751 188 q 740 127 751 160 q 699 66 728 94 q 626 19 671 38 q 514 0 581 0 l 111 0 l 111 608 l 483 608 q 563 599 524 608 q 631 571 601 590 q 680 520 661 551 q 699 443 699 489 q 685 388 699 413 q 650 347 672 363 l 650 339 q 724 280 696 319 q 751 188 751 240 m 533 436 q 519 468 533 456 q 474 481 506 481 l 269 481 l 269 386 l 474 386 q 517 399 500 386 q 533 436 533 413 m 586 196 q 565 241 586 224 q 510 258 544 258 l 269 258 l 269 128 l 510 128 q 566 148 546 128 q 586 196 586 168 z "},"c":{"ha":832,"x_min":83,"x_max":749,"o":"m 749 31 q 597 -6 660 1 q 481 -14 533 -14 q 331 9 403 -14 q 203 74 258 32 q 116 174 149 115 q 83 303 83 232 q 116 433 83 374 q 203 533 149 492 q 330 598 258 575 q 481 621 401 621 q 597 614 533 621 q 749 576 660 607 l 749 431 l 706 431 q 481 490 578 490 q 392 477 433 490 q 319 440 350 464 q 269 381 288 417 q 251 303 251 346 q 269 224 251 258 q 319 166 288 190 q 392 129 350 142 q 481 117 433 117 q 706 176 578 117 l 749 176 l 749 31 z "},"d":{"ha":836,"x_min":83,"x_max":725,"o":"m 461 0 q 307 23 376 0 q 188 87 238 46 q 110 185 138 128 q 83 308 83 242 q 108 440 83 382 q 178 538 133 497 q 283 599 222 578 q 415 621 344 621 q 499 613 460 621 q 565 594 538 606 l 574 594 l 564 688 l 564 878 l 725 878 l 725 0 l 461 0 m 565 442 q 506 469 543 456 q 415 482 469 482 q 353 473 383 482 q 301 444 324 464 q 263 390 278 424 q 249 308 249 357 q 305 178 249 225 q 461 132 361 132 l 565 132 l 565 442 z "},"e":{"ha":833,"x_min":83,"x_max":750,"o":"m 750 31 q 596 -7 661 0 q 478 -14 531 -14 q 327 10 399 -14 q 201 76 256 33 q 115 178 147 119 q 83 308 83 238 q 116 438 83 379 q 203 536 149 496 q 328 599 257 576 q 478 621 400 621 q 595 614 531 621 q 749 576 660 607 l 749 431 l 706 431 q 478 492 575 492 q 340 460 394 492 q 261 375 285 428 l 685 375 l 685 244 l 263 244 q 342 152 286 189 q 478 115 399 115 q 707 176 576 115 l 750 176 l 750 31 z "},"f":{"ha":760,"x_min":111,"x_max":676,"o":"m 633 424 q 529 465 582 449 q 417 481 476 481 q 305 444 340 481 q 269 338 269 408 l 269 161 l 593 161 l 593 21 l 269 21 l 269 -278 l 111 -278 l 111 338 q 188 546 111 471 q 417 621 264 621 q 568 604 500 621 q 676 572 636 588 l 676 424 l 633 424 z "},"g":{"ha":865,"x_min":83,"x_max":754,"o":"m 596 -111 l 596 -12 q 542 -19 572 -17 q 476 -22 511 -22 q 326 1 397 -22 q 201 66 256 24 q 115 167 147 108 q 83 299 83 226 q 116 430 83 371 q 203 531 149 489 q 330 597 258 574 q 481 621 401 621 q 597 614 533 621 q 749 576 660 607 l 749 428 l 706 428 q 481 489 579 489 q 392 476 433 489 q 319 438 350 463 q 269 378 288 414 q 251 299 251 343 q 269 219 251 254 q 317 160 286 185 q 388 123 347 136 q 476 110 429 110 q 544 117 513 110 q 596 133 576 125 l 596 340 l 754 340 l 754 -111 l 596 -111 z "},"h":{"ha":893,"x_min":111,"x_max":810,"o":"m 810 314 q 792 201 810 253 q 748 110 774 150 q 694 43 722 71 q 649 0 667 15 l 488 0 l 488 43 q 542 95 514 67 q 594 158 571 124 q 633 231 618 192 q 647 314 647 269 q 638 376 647 346 q 606 429 628 406 q 551 467 585 453 q 471 481 518 481 q 401 470 433 481 q 344 444 369 460 q 299 410 318 428 q 269 379 281 393 l 269 0 l 111 0 l 111 878 l 269 878 l 269 638 l 264 556 l 272 556 q 358 601 308 581 q 471 621 408 621 q 624 595 560 621 q 729 526 688 569 q 790 428 771 483 q 810 314 810 374 z "},"i":{"ha":381,"x_min":111,"x_max":269,"o":"m 111 0 l 111 608 l 269 608 l 269 0 l 111 0 z "},"j":{"ha":372,"x_min":28,"x_max":261,"o":"m 261 -79 q 124 -250 261 -208 l 86 -261 l 28 -161 q 81 -133 60 -146 q 103 -79 103 -119 l 103 608 l 261 608 l 261 -79 z "},"k":{"ha":757,"x_min":111,"x_max":729,"o":"m 565 0 l 276 210 l 268 210 l 268 0 l 111 0 l 111 878 l 268 878 l 268 401 l 276 401 l 557 608 l 721 608 l 721 565 l 378 311 l 378 303 l 729 43 l 729 0 l 565 0 z "},"l":{"ha":683,"x_min":111,"x_max":656,"o":"m 111 0 l 111 608 l 269 608 l 269 135 l 656 135 l 656 0 l 111 0 z "},"m":{"ha":1301,"x_min":83,"x_max":1218,"o":"m 1218 310 q 1206 224 1218 268 q 1172 138 1193 179 q 1124 60 1151 96 q 1067 0 1096 25 l 906 0 l 906 43 q 958 85 931 57 q 1008 148 985 113 q 1045 225 1031 183 q 1060 310 1060 267 q 1013 442 1060 394 q 882 490 967 490 q 808 476 838 490 q 762 439 779 463 q 737 385 744 415 q 729 322 729 354 l 729 0 l 572 0 l 572 322 q 567 378 572 349 q 545 433 561 408 q 499 474 529 458 q 418 490 468 490 q 288 442 333 490 q 242 310 242 394 q 256 225 242 267 q 294 148 271 183 q 344 85 317 113 q 396 43 371 57 l 396 0 l 233 0 q 177 60 204 25 q 129 138 150 96 q 96 224 108 179 q 83 310 83 268 q 106 438 83 381 q 173 537 129 496 q 278 599 217 578 q 418 621 340 621 q 558 594 506 621 q 646 532 611 568 l 654 532 q 743 594 683 567 q 882 621 803 621 q 1022 599 960 621 q 1127 537 1083 578 q 1194 438 1171 496 q 1218 310 1218 381 z "},"n":{"ha":919,"x_min":111,"x_max":808,"o":"m 689 0 l 271 389 l 263 389 l 263 0 l 111 0 l 111 608 l 235 608 l 649 225 l 657 225 l 657 608 l 808 608 l 808 0 l 689 0 z "},"o":{"ha":990,"x_min":83,"x_max":907,"o":"m 907 304 q 877 184 907 242 q 792 83 847 126 q 662 13 738 39 q 494 -14 586 -14 q 327 13 403 -14 q 197 83 251 39 q 113 184 143 126 q 83 304 83 242 q 114 427 83 369 q 199 528 144 485 q 330 596 254 571 q 494 621 406 621 q 659 596 583 621 q 790 528 735 571 q 876 427 844 485 q 907 304 907 369 m 739 304 q 721 375 739 342 q 670 433 703 408 q 592 473 638 458 q 494 488 547 488 q 397 473 442 488 q 319 433 351 458 q 269 375 288 408 q 251 304 251 342 q 269 233 251 267 q 320 174 288 200 q 397 134 353 149 q 494 119 442 119 q 592 134 547 119 q 669 174 636 149 q 720 233 701 200 q 739 304 739 267 z "},"p":{"ha":819,"x_min":111,"x_max":736,"o":"m 736 313 q 714 185 736 244 q 649 82 692 126 q 546 12 607 38 q 408 -14 485 -14 q 332 -7 367 -14 q 271 11 297 0 l 263 11 l 271 -64 l 271 -269 l 111 -269 l 111 608 l 386 608 q 538 587 472 608 q 647 526 603 565 q 714 433 692 488 q 736 313 736 379 m 568 313 q 521 437 568 397 q 386 476 474 476 l 271 476 l 271 165 q 322 139 289 153 q 408 125 356 125 q 466 135 438 125 q 517 169 494 146 q 554 227 540 192 q 568 313 568 263 z "},"q":{"ha":819,"x_min":83,"x_max":708,"o":"m 549 -269 l 549 -87 l 557 11 l 549 11 q 488 -7 522 0 q 410 -14 453 -14 q 274 8 335 -14 q 172 72 214 31 q 106 169 129 113 q 83 293 83 225 q 105 416 83 358 q 170 516 126 474 q 279 583 214 558 q 432 608 344 608 l 708 608 l 708 -269 l 549 -269 m 549 476 l 432 476 q 299 428 347 476 q 251 293 251 381 q 265 213 251 244 q 300 161 278 181 q 351 133 322 142 q 410 125 379 125 q 497 138 463 125 q 549 164 531 151 l 549 476 z "},"r":{"ha":844,"x_min":111,"x_max":817,"o":"m 640 0 l 418 178 q 381 199 401 192 q 333 207 361 207 l 269 207 l 269 0 l 111 0 l 111 608 l 460 608 q 648 553 582 608 q 714 415 714 499 q 675 306 714 349 q 581 239 636 263 l 581 231 l 817 43 l 817 0 l 640 0 m 546 408 q 524 462 546 443 q 468 481 501 481 l 269 481 l 269 335 l 468 335 q 522 355 497 335 q 546 408 546 375 z "},"s":{"ha":739,"x_min":83,"x_max":656,"o":"m 656 165 q 635 92 656 125 q 579 35 615 58 q 492 -2 543 11 q 378 -15 440 -15 q 226 6 299 -15 q 101 47 154 26 l 83 204 l 126 204 q 182 172 151 189 q 245 142 213 156 q 312 119 278 128 q 378 111 346 111 q 431 117 410 111 q 464 131 451 122 q 482 149 476 139 q 488 165 488 158 q 460 197 488 183 q 390 226 432 211 q 299 258 349 240 q 208 300 250 275 q 139 360 167 325 q 111 444 111 394 q 129 514 111 482 q 181 569 147 546 q 262 607 214 593 q 369 621 310 621 q 513 603 449 621 q 615 571 576 586 l 633 411 l 590 411 q 488 469 546 443 q 369 494 431 494 q 318 488 336 494 q 291 474 300 482 q 281 457 282 465 q 279 444 279 449 q 298 417 279 431 q 342 392 317 404 q 392 372 367 381 q 429 360 417 364 q 506 331 465 347 q 579 293 546 315 q 634 240 613 271 q 656 165 656 208 z "},"t":{"ha":763,"x_min":28,"x_max":735,"o":"m 461 471 l 461 0 l 303 0 l 303 471 l 28 471 l 28 608 l 735 608 l 735 471 l 461 471 z "},"u":{"ha":893,"x_min":83,"x_max":782,"o":"m 635 0 l 635 33 l 639 64 l 631 64 q 542 12 597 38 q 421 -14 486 -14 q 268 12 332 -14 q 163 79 204 38 q 103 175 122 121 q 83 288 83 229 q 101 392 83 340 q 144 485 119 443 q 197 560 169 528 q 243 608 224 593 l 406 608 l 406 565 q 351 512 379 542 q 299 447 322 482 q 261 372 276 413 q 246 288 246 332 q 256 227 246 257 q 286 174 265 197 q 340 137 307 151 q 421 122 374 122 q 488 133 456 122 q 546 158 519 143 q 592 191 572 174 q 624 222 613 208 l 624 608 l 782 608 l 782 0 l 635 0 z "},"v":{"ha":864,"x_min":28,"x_max":836,"o":"m 490 -6 l 356 -6 l 28 565 l 28 608 l 181 608 l 421 178 l 429 178 l 685 608 l 836 608 l 836 565 l 490 -6 z "},"w":{"ha":1243,"x_min":28,"x_max":1215,"o":"m 949 -6 l 810 -6 l 626 400 l 618 400 l 432 -6 l 293 -6 l 28 565 l 28 608 l 181 608 l 360 203 l 368 203 l 551 608 l 690 608 l 875 203 l 883 203 l 1061 608 l 1215 608 l 1215 565 l 949 -6 z "},"x":{"ha":738,"x_min":28,"x_max":710,"o":"m 549 0 l 369 215 l 361 215 l 182 0 l 28 0 l 28 43 l 257 313 l 257 321 l 64 565 l 64 608 l 222 608 l 361 415 l 369 415 l 507 608 l 667 608 l 667 565 l 474 321 l 474 313 l 710 43 l 710 0 l 549 0 z "},"y":{"ha":810,"x_min":28,"x_max":782,"o":"m 357 -278 l 207 -278 l 207 -235 l 318 -14 l 28 565 l 28 608 l 186 608 l 401 163 l 410 163 l 625 608 l 782 608 l 782 565 l 357 -278 z "},"z":{"ha":735,"x_min":83,"x_max":679,"o":"m 83 0 l 83 99 l 425 472 l 425 481 l 92 481 l 92 524 l 117 608 l 649 608 l 649 497 l 308 136 l 308 128 l 679 128 l 679 0 l 83 0 z "},"{":{"ha":501,"x_min":83,"x_max":446,"o":"m 313 -210 q 271 -207 292 -210 q 233 -192 250 -204 q 206 -158 217 -181 q 196 -97 196 -136 l 196 122 q 178 214 196 185 q 136 243 161 243 l 83 243 l 83 367 l 136 367 q 178 396 161 367 q 196 488 196 425 l 196 707 q 206 768 196 746 q 233 801 217 790 q 271 815 250 813 q 313 818 292 818 l 446 818 l 446 692 l 339 692 l 339 461 q 319 369 339 408 q 264 307 300 331 l 264 299 q 320 238 301 274 q 339 149 339 201 l 339 -83 l 446 -83 l 446 -210 l 313 -210 z "},"|":{"ha":297,"x_min":81,"x_max":215,"o":"m 81 -326 l 81 1063 l 215 1063 l 215 -326 l 81 -326 z "},"}":{"ha":501,"x_min":83,"x_max":446,"o":"m 393 243 q 351 214 368 243 q 333 122 333 185 l 333 -97 q 323 -158 333 -136 q 296 -192 313 -181 q 258 -207 279 -204 q 217 -210 238 -210 l 83 -210 l 83 -83 l 190 -83 l 190 149 q 209 238 190 201 q 265 299 228 274 l 265 307 q 210 369 229 331 q 190 461 190 408 l 190 692 l 83 692 l 83 818 l 217 818 q 258 815 238 818 q 296 801 279 813 q 323 768 313 790 q 333 707 333 746 l 333 488 q 351 396 333 425 q 393 367 368 367 l 446 367 l 446 243 l 393 243 z "},"~":{"ha":788,"x_min":47,"x_max":739,"o":"m 739 326 q 652 235 699 268 q 536 201 606 201 q 459 212 499 201 q 382 244 419 222 q 321 276 353 263 q 254 289 289 289 q 215 280 233 289 q 183 258 197 271 q 156 228 168 244 q 136 197 144 211 l 47 299 q 85 348 65 325 q 130 388 106 371 q 183 414 154 404 q 250 424 213 424 q 331 412 293 424 q 401 381 368 400 q 469 347 438 360 q 532 335 500 335 q 601 365 572 335 q 651 428 631 394 l 739 326 z "}," ":{"ha":361,"x_min":0,"x_max":0,"o":""},"¡":{"ha":331,"x_min":83,"x_max":256,"o":"m 256 536 q 231 475 256 500 q 169 450 206 450 q 108 475 133 450 q 83 536 83 500 q 108 597 83 572 q 169 622 133 622 q 231 597 206 622 q 256 536 256 572 m 92 0 l 92 269 l 108 411 l 233 411 l 250 269 l 250 0 l 92 0 z "},"¢":{"ha":732,"x_min":56,"x_max":649,"o":"m 649 54 q 531 24 582 32 q 439 14 481 15 l 439 -115 l 347 -115 l 347 18 q 235 50 288 26 q 142 109 182 74 q 79 192 103 144 q 56 296 56 239 q 78 399 56 351 q 141 483 101 447 q 234 543 181 519 q 347 575 288 567 l 347 701 l 439 701 l 439 579 q 531 570 481 578 q 649 539 582 563 l 649 410 l 610 410 q 520 445 563 432 q 439 461 478 458 l 439 132 q 520 148 478 135 q 610 183 563 161 l 649 183 l 649 54 m 347 456 q 245 399 285 440 q 206 296 206 358 q 245 192 206 233 q 347 138 285 151 l 347 456 z "},"£":{"ha":731,"x_min":111,"x_max":619,"o":"m 576 433 q 515 480 553 458 q 428 501 476 501 q 374 479 388 501 q 360 438 360 457 l 360 374 l 358 361 l 368 363 l 493 363 l 493 242 l 368 242 l 358 243 l 360 235 l 360 179 q 351 129 360 151 l 582 129 l 582 0 l 154 0 l 154 96 q 192 135 181 114 q 204 179 204 157 l 204 235 l 206 243 l 197 242 l 111 242 l 111 363 l 194 363 l 206 361 l 204 374 l 204 447 q 217 510 204 479 q 258 567 231 542 q 328 607 286 592 q 428 622 371 622 q 528 610 479 622 q 619 582 578 597 l 619 433 l 576 433 z "},"¤":{"ha":879,"x_min":121,"x_max":758,"o":"m 758 242 q 727 210 743 226 q 696 178 711 193 q 649 224 672 201 q 601 271 625 247 q 526 231 567 244 q 440 218 485 218 q 361 229 404 218 q 278 271 318 240 q 231 224 254 247 q 185 178 208 201 q 153 210 168 193 q 121 242 138 226 q 169 287 144 264 q 217 332 193 310 q 178 409 192 368 q 164 492 164 450 q 177 575 164 533 q 217 651 190 617 l 121 743 q 153 775 138 758 q 185 807 168 792 q 231 760 208 783 q 278 714 254 738 q 362 755 319 743 q 440 767 404 767 q 522 754 478 767 q 600 714 565 742 q 648 760 624 738 q 696 807 672 783 q 727 775 711 792 q 758 743 743 758 q 711 697 735 719 q 664 651 688 675 q 704 571 692 613 q 717 492 717 529 q 664 332 717 408 q 711 287 688 310 q 758 242 735 264 m 626 493 q 610 569 626 535 q 568 627 594 603 q 508 665 542 651 q 440 678 475 678 q 366 663 400 678 q 307 622 332 647 q 267 564 282 597 q 253 493 253 531 q 267 422 253 456 q 308 362 282 388 q 367 321 333 336 q 440 306 401 306 q 512 321 478 306 q 572 362 546 336 q 612 422 597 388 q 626 493 626 456 z "},"¥":{"ha":718,"x_min":83,"x_max":635,"o":"m 478 315 l 576 315 l 576 242 l 444 242 l 444 196 l 576 196 l 576 122 l 444 122 l 444 0 l 274 0 l 274 122 l 139 122 l 139 196 l 274 196 l 274 242 l 139 242 l 139 315 l 240 315 l 83 565 l 83 608 l 242 608 l 357 372 l 365 372 l 476 608 l 635 608 l 635 565 l 478 315 z "},"¦":{"ha":297,"x_min":81,"x_max":215,"o":"m 81 457 l 81 1063 l 215 1063 l 215 457 l 81 457 m 81 -326 l 81 290 l 215 290 l 215 -326 l 81 -326 z "},"§":{"ha":758,"x_min":83,"x_max":675,"o":"m 675 -124 q 653 -196 675 -164 q 593 -251 632 -228 q 501 -286 554 -274 q 385 -299 447 -299 q 231 -283 307 -299 q 101 -244 154 -267 l 83 -101 l 126 -101 q 176 -126 147 -112 q 238 -150 204 -139 q 310 -169 272 -161 q 385 -176 347 -176 q 473 -164 442 -176 q 504 -124 504 -151 q 486 -91 504 -106 q 439 -64 468 -76 q 372 -39 410 -51 q 296 -10 335 -26 q 224 24 258 6 q 161 66 189 43 q 117 117 133 89 q 100 181 100 144 q 126 257 100 226 q 192 310 153 288 q 128 369 156 333 q 100 449 100 404 q 126 526 100 493 q 192 579 151 558 q 283 610 232 600 q 385 621 335 621 q 517 608 457 621 q 643 569 578 594 l 661 418 l 618 418 q 506 472 565 446 q 385 499 447 499 q 349 497 369 499 q 311 489 329 494 q 281 474 293 483 q 269 449 269 464 q 288 417 269 432 q 332 390 306 403 q 385 368 358 378 q 432 351 413 358 q 495 327 454 343 q 576 286 536 311 q 646 225 617 261 q 675 142 675 189 q 651 68 675 101 q 585 11 626 35 q 650 -46 625 -12 q 675 -124 675 -79 m 504 132 q 485 165 504 149 q 439 194 467 181 q 380 219 411 208 q 325 239 349 231 q 284 222 299 238 q 269 181 269 206 q 293 147 269 163 q 349 119 317 132 q 413 97 381 107 q 461 82 444 88 q 491 99 478 88 q 504 132 504 110 z "},"¨":{"ha":526,"x_min":56,"x_max":471,"o":"m 471 760 q 447 700 471 724 q 386 676 422 676 q 326 700 350 676 q 303 760 303 724 q 326 820 303 796 q 386 844 350 844 q 447 820 422 844 q 471 760 471 796 m 224 760 q 199 700 224 724 q 139 676 175 676 q 79 700 103 676 q 56 760 56 724 q 79 820 56 796 q 139 844 103 844 q 199 820 175 844 q 224 760 224 796 z "},"©":{"ha":975,"x_min":42,"x_max":933,"o":"m 933 418 q 898 245 933 326 q 802 103 863 164 q 660 8 742 43 q 488 -28 579 -28 q 315 8 396 -28 q 173 103 233 43 q 77 245 113 164 q 42 418 42 326 q 77 591 42 510 q 173 733 113 672 q 315 828 233 793 q 488 864 396 864 q 660 828 579 864 q 802 733 742 793 q 898 591 863 672 q 933 418 933 510 m 811 415 q 786 542 811 483 q 717 646 761 601 q 615 716 674 690 q 488 742 556 742 q 360 716 419 742 q 258 646 301 690 q 189 542 214 601 q 164 415 164 483 q 189 289 164 347 q 258 188 214 231 q 360 119 301 144 q 488 94 419 94 q 615 119 556 94 q 717 188 674 144 q 786 289 761 231 q 811 415 811 347 m 665 222 q 577 199 615 203 q 506 194 539 194 q 397 212 444 194 q 317 259 350 229 q 267 330 285 289 q 250 419 250 371 q 269 511 250 469 q 322 583 288 553 q 403 629 356 613 q 506 646 450 646 q 577 641 539 646 q 665 617 615 636 l 665 508 l 644 508 q 573 540 607 528 q 506 551 539 551 q 405 518 444 551 q 365 419 365 485 q 400 327 365 361 q 506 293 435 293 q 583 302 554 293 q 644 332 613 311 l 665 332 l 665 222 z "},"ª":{"ha":531,"x_min":56,"x_max":475,"o":"m 374 294 l 339 356 l 113 269 l 56 328 l 218 574 l 201 608 l 201 636 l 301 636 l 475 322 l 475 294 l 374 294 m 268 506 l 264 506 l 168 365 l 171 361 l 314 428 l 268 506 z "},"«":{"ha":636,"x_min":28,"x_max":608,"o":"m 475 89 l 263 308 l 475 528 l 608 528 l 608 486 l 418 308 l 608 131 l 608 89 l 475 89 m 240 89 l 28 308 l 240 528 l 374 528 l 374 486 l 183 308 l 374 131 l 374 89 l 240 89 z "},"¬":{"ha":788,"x_min":86,"x_max":700,"o":"m 565 97 l 565 346 l 86 346 l 86 481 l 700 481 l 700 97 l 565 97 z "},"­":{"ha":475,"x_min":56,"x_max":419,"o":"m 56 229 l 56 381 l 419 381 l 419 229 l 56 229 z "},"®":{"ha":811,"x_min":83,"x_max":728,"o":"m 728 556 q 702 430 728 489 q 633 327 676 371 q 531 258 589 283 q 406 233 472 233 q 280 258 339 233 q 177 327 221 283 q 108 430 133 371 q 83 556 83 489 q 108 681 83 622 q 177 783 133 739 q 280 852 221 826 q 406 878 339 878 q 531 852 472 878 q 633 783 589 826 q 702 681 676 739 q 728 556 728 622 m 632 554 q 615 643 632 601 q 567 715 597 685 q 494 764 536 746 q 406 782 453 782 q 317 764 358 782 q 244 715 275 746 q 197 643 214 685 q 179 554 179 601 q 197 466 179 507 q 244 394 214 425 q 317 347 275 364 q 406 329 358 329 q 494 347 453 329 q 567 394 536 364 q 615 466 597 425 q 632 554 632 507 m 558 403 l 476 403 l 399 494 q 390 506 392 501 q 376 510 389 510 l 365 510 l 365 403 l 282 403 l 282 714 l 435 714 q 522 688 493 714 q 551 619 551 661 q 525 556 551 578 q 474 525 499 535 l 574 413 l 558 403 m 463 614 q 449 643 463 638 q 411 649 435 649 l 368 649 l 368 576 l 411 576 q 449 584 435 576 q 463 614 463 592 z "},"¯":{"ha":615,"x_min":56,"x_max":560,"o":"m 56 681 l 56 810 l 560 810 l 560 681 l 56 681 z "},"°":{"ha":583,"x_min":83,"x_max":500,"o":"m 500 411 q 483 330 500 368 q 439 264 467 292 q 373 219 411 236 q 292 203 335 203 q 210 219 249 203 q 144 264 172 236 q 100 330 117 292 q 83 411 83 368 q 100 492 83 454 q 144 558 117 531 q 210 603 172 586 q 292 619 249 619 q 373 603 335 619 q 439 558 411 586 q 483 492 467 531 q 500 411 500 454 m 386 411 q 359 477 386 450 q 292 504 332 504 q 225 478 251 504 q 199 411 199 451 q 226 344 199 371 q 292 317 253 317 q 359 344 332 317 q 386 411 386 371 z "},"±":{"ha":788,"x_min":88,"x_max":700,"o":"m 88 -83 l 88 51 l 700 51 l 700 -83 l 88 -83 m 461 401 l 461 133 l 326 133 l 326 401 l 88 401 l 88 536 l 326 536 l 326 806 l 461 806 l 461 536 l 700 536 l 700 401 l 461 401 z "},"²":{"ha":475,"x_min":83,"x_max":392,"o":"m 83 289 l 83 371 q 132 400 101 383 q 193 436 163 417 q 245 473 225 456 q 265 504 265 490 q 257 525 265 515 q 225 535 249 535 q 179 522 204 535 q 131 485 154 508 l 86 485 l 86 581 q 163 611 126 603 q 225 619 199 619 q 283 613 256 619 q 332 593 311 607 q 365 557 353 579 q 378 504 378 535 q 365 464 378 483 q 333 428 353 444 q 290 400 314 413 q 242 379 265 388 l 242 371 l 313 379 l 392 379 l 392 289 l 83 289 z "},"³":{"ha":435,"x_min":83,"x_max":351,"o":"m 351 386 q 339 344 351 363 q 306 314 326 326 q 258 295 285 301 q 206 289 232 289 q 151 294 182 289 q 83 314 121 299 l 83 401 l 117 401 q 148 376 126 390 q 206 361 169 361 q 241 372 233 361 q 249 393 249 383 q 236 415 249 408 q 204 422 224 422 l 163 422 l 163 485 l 204 485 q 233 493 222 485 q 244 513 244 501 q 238 533 244 522 q 208 544 232 544 q 160 531 185 544 q 124 507 135 517 l 88 507 l 88 594 q 155 615 125 610 q 208 619 185 619 q 310 594 271 619 q 349 531 349 568 q 335 488 349 503 q 306 464 322 474 l 306 456 q 337 429 322 447 q 351 386 351 411 z "},"´":{"ha":428,"x_min":56,"x_max":372,"o":"m 153 671 l 56 671 l 56 714 l 208 906 l 372 906 l 372 858 l 153 671 z "},"µ":{"ha":890,"x_min":119,"x_max":771,"o":"m 642 0 l 642 129 l 639 129 q 558 31 608 67 q 432 -8 508 -6 q 317 15 360 -11 q 250 78 275 42 q 250 76 250 78 q 249 -94 250 -6 q 249 -265 249 -183 l 119 -265 l 119 694 l 249 694 l 249 340 q 297 154 249 219 q 439 89 344 89 q 522 108 485 89 q 584 157 558 126 q 624 226 610 188 q 640 306 639 265 l 640 694 l 771 694 l 771 0 l 642 0 z "},"¶":{"ha":700,"x_min":83,"x_max":617,"o":"m 549 668 l 549 -58 l 431 -58 l 431 668 l 371 668 l 371 -58 l 253 -58 l 253 404 q 187 422 218 408 q 133 457 156 435 q 97 511 110 479 q 83 586 83 543 q 99 665 83 631 q 141 724 114 700 q 204 759 168 747 q 282 771 240 771 l 617 771 l 617 668 l 549 668 z "},"·":{"ha":353,"x_min":83,"x_max":269,"o":"m 269 311 q 242 245 269 272 q 176 218 215 218 q 110 245 138 218 q 83 311 83 272 q 110 377 83 350 q 176 404 138 404 q 242 377 215 404 q 269 311 269 350 z "},"¸":{"ha":426,"x_min":83,"x_max":343,"o":"m 343 -149 q 301 -247 343 -208 q 182 -286 258 -286 q 133 -282 160 -286 q 83 -268 106 -278 l 83 -169 l 126 -169 q 147 -189 135 -181 q 171 -197 158 -197 q 210 -182 197 -197 q 222 -150 222 -167 q 208 -120 222 -132 q 165 -108 194 -108 q 148 -109 158 -108 q 119 -112 138 -110 l 163 4 l 285 4 l 272 -37 q 324 -83 306 -53 q 343 -149 343 -114 z "},"¹":{"ha":338,"x_min":83,"x_max":254,"o":"m 147 294 l 147 467 l 150 515 l 126 500 l 83 500 l 83 574 l 178 621 l 254 621 l 254 294 l 147 294 z "},"º":{"ha":572,"x_min":56,"x_max":517,"o":"m 517 449 q 499 383 517 414 q 451 328 482 351 q 378 292 421 306 q 285 278 336 278 q 191 292 233 278 q 119 328 149 306 q 72 383 89 351 q 56 449 56 414 q 73 516 56 485 q 121 571 90 547 q 193 608 151 594 q 285 621 235 621 q 377 608 335 621 q 451 571 419 594 q 499 516 482 547 q 517 449 517 485 m 408 449 q 374 508 408 482 q 285 533 340 533 q 197 508 229 533 q 164 449 164 482 q 197 391 164 417 q 285 365 229 365 q 374 391 340 365 q 408 449 408 417 z "},"»":{"ha":636,"x_min":28,"x_max":608,"o":"m 396 89 l 263 89 l 263 131 l 453 308 l 263 486 l 263 528 l 396 528 l 608 308 l 396 89 m 161 89 l 28 89 l 28 131 l 218 308 l 28 486 l 28 528 l 161 528 l 374 308 l 161 89 z "},"¼":{"ha":804,"x_min":83,"x_max":807,"o":"m 747 67 l 747 0 l 647 0 l 647 67 l 432 67 l 432 133 l 619 385 l 693 336 l 613 215 l 564 164 l 564 156 l 647 156 l 647 196 l 688 260 l 747 260 l 747 156 l 807 156 l 807 67 l 747 67 m 207 -21 l 132 -21 l 132 6 l 569 636 l 640 636 l 640 603 l 207 -21 m 147 294 l 147 467 l 150 515 l 126 500 l 83 500 l 83 574 l 178 621 l 254 621 l 254 294 l 147 294 z "},"½":{"ha":817,"x_min":83,"x_max":788,"o":"m 479 0 l 479 82 q 528 111 497 94 q 589 147 558 128 q 641 184 621 167 q 661 215 661 201 q 653 236 661 226 q 621 246 644 246 q 575 233 600 246 q 526 196 550 219 l 482 196 l 482 292 q 558 322 522 314 q 621 331 594 331 q 679 324 651 331 q 728 304 707 318 q 761 268 749 290 q 774 215 774 246 q 761 175 774 194 q 729 140 749 156 q 685 111 710 124 q 638 90 661 99 l 638 82 l 708 90 l 788 90 l 788 0 l 479 0 m 207 -21 l 132 -21 l 132 6 l 569 636 l 640 636 l 640 603 l 207 -21 m 147 294 l 147 467 l 150 515 l 126 500 l 83 500 l 83 574 l 178 621 l 254 621 l 254 294 l 147 294 z "},"¾":{"ha":942,"x_min":83,"x_max":858,"o":"m 799 67 l 799 0 l 699 0 l 699 67 l 483 67 l 483 133 l 671 385 l 744 336 l 664 215 l 615 164 l 615 156 l 699 156 l 699 196 l 739 260 l 799 260 l 799 156 l 858 156 l 858 67 l 799 67 m 257 -21 l 182 -21 l 182 6 l 619 636 l 690 636 l 690 603 l 257 -21 m 351 386 q 339 344 351 363 q 306 314 326 326 q 258 295 285 301 q 206 289 232 289 q 151 294 182 289 q 83 314 121 299 l 83 401 l 117 401 q 148 376 126 390 q 206 361 169 361 q 241 372 233 361 q 249 393 249 383 q 236 415 249 408 q 204 422 224 422 l 163 422 l 163 485 l 204 485 q 233 493 222 485 q 244 513 244 501 q 238 533 244 522 q 208 544 232 544 q 160 531 185 544 q 124 507 135 517 l 88 507 l 88 594 q 155 615 125 610 q 208 619 185 619 q 310 594 271 619 q 349 531 349 568 q 335 488 349 503 q 306 464 322 474 l 306 456 q 337 429 322 447 q 351 386 351 411 z "},"¿":{"ha":571,"x_min":83,"x_max":488,"o":"m 417 535 q 392 474 417 499 q 331 449 367 449 q 269 474 294 449 q 244 535 244 499 q 269 596 244 571 q 331 621 294 621 q 392 596 367 621 q 417 535 417 571 m 488 32 q 401 -1 443 11 q 304 -14 358 -14 q 231 -6 269 -14 q 159 21 192 3 q 105 69 126 39 q 83 142 83 99 q 107 218 83 189 q 160 269 131 247 q 218 310 190 292 q 256 351 246 328 l 275 400 l 375 400 l 383 349 q 358 284 383 308 q 303 240 333 260 q 249 201 274 221 q 224 151 224 182 q 248 107 224 124 q 304 90 272 90 q 373 112 340 90 q 439 167 406 133 l 488 167 l 488 32 z "},"À":{"ha":856,"x_min":56,"x_max":800,"o":"m 456 671 l 236 863 l 236 906 l 400 906 l 553 714 l 553 671 l 456 671 m 629 0 l 581 104 l 271 104 l 224 0 l 56 0 l 56 43 l 344 608 l 507 608 l 800 43 l 800 0 l 629 0 m 431 435 l 422 435 l 332 235 l 519 235 l 431 435 z "},"Á":{"ha":856,"x_min":56,"x_max":800,"o":"m 393 671 l 296 671 l 296 714 l 449 906 l 613 906 l 613 858 l 393 671 m 629 0 l 581 104 l 271 104 l 224 0 l 56 0 l 56 43 l 344 608 l 507 608 l 800 43 l 800 0 l 629 0 m 431 435 l 422 435 l 332 235 l 519 235 l 431 435 z "},"Â":{"ha":856,"x_min":56,"x_max":800,"o":"m 528 671 l 432 806 l 424 806 l 328 671 l 203 671 l 203 714 l 369 906 l 483 906 l 653 714 l 653 671 l 528 671 m 629 0 l 581 104 l 271 104 l 224 0 l 56 0 l 56 43 l 344 608 l 507 608 l 800 43 l 800 0 l 629 0 m 431 435 l 422 435 l 332 235 l 519 235 l 431 435 z "},"Ã":{"ha":856,"x_min":56,"x_max":800,"o":"m 656 756 q 635 731 647 744 q 606 704 622 717 q 568 683 589 692 q 522 675 547 675 q 467 686 490 675 q 422 710 443 697 q 379 735 400 724 q 333 746 358 746 q 288 726 310 746 q 243 674 267 706 l 200 674 l 200 788 q 222 813 210 799 q 251 839 235 826 q 287 860 267 851 q 333 868 307 868 q 388 857 364 868 q 434 833 413 846 q 476 808 456 819 q 522 797 497 797 q 567 817 546 797 q 613 869 589 838 l 656 869 l 656 756 m 629 0 l 581 104 l 271 104 l 224 0 l 56 0 l 56 43 l 344 608 l 507 608 l 800 43 l 800 0 l 629 0 m 431 435 l 422 435 l 332 235 l 519 235 l 431 435 z "},"Ä":{"ha":856,"x_min":56,"x_max":800,"o":"m 636 760 q 612 700 636 724 q 551 676 588 676 q 491 700 515 676 q 467 760 467 724 q 490 820 467 796 q 550 844 514 844 q 611 820 586 844 q 636 760 636 796 m 388 760 q 363 700 388 724 q 303 676 339 676 q 242 700 267 676 q 218 760 218 724 q 242 820 218 796 q 301 844 265 844 q 363 820 338 844 q 388 760 388 796 m 629 0 l 581 104 l 271 104 l 224 0 l 56 0 l 56 43 l 344 608 l 507 608 l 800 43 l 800 0 l 629 0 m 431 435 l 422 435 l 332 235 l 519 235 l 431 435 z "},"Å":{"ha":856,"x_min":56,"x_max":800,"o":"m 596 839 q 583 774 596 804 q 547 720 569 743 q 493 684 524 697 q 428 671 463 671 q 363 684 393 671 q 309 720 332 697 q 273 774 286 743 q 260 839 260 804 q 273 904 260 874 q 309 958 286 935 q 363 994 332 981 q 428 1007 393 1007 q 493 994 463 1007 q 547 958 524 981 q 583 904 569 935 q 596 839 596 874 m 629 0 l 581 104 l 271 104 l 224 0 l 56 0 l 56 43 l 344 608 l 507 608 l 800 43 l 800 0 l 629 0 m 488 839 q 470 881 488 864 q 428 899 453 899 q 385 881 403 899 q 368 839 368 864 q 385 797 368 814 q 428 779 403 779 q 470 797 453 779 q 488 839 488 814 m 431 435 l 422 435 l 332 235 l 519 235 l 431 435 z "},"Æ":{"ha":1306,"x_min":28,"x_max":1222,"o":"m 1222 319 q 1219 282 1222 304 q 1213 244 1217 260 l 714 244 q 748 199 725 222 q 801 158 771 176 q 867 127 832 139 q 938 115 901 115 q 1046 131 989 115 q 1167 176 1103 147 l 1210 176 l 1210 31 q 1055 -7 1121 0 q 938 -14 989 -14 q 809 6 867 -14 q 714 65 751 26 l 721 0 l 558 0 l 551 104 l 282 104 l 210 0 l 28 0 l 472 608 l 635 608 l 646 531 q 749 597 690 574 q 875 621 807 621 q 998 603 936 621 q 1110 550 1060 586 q 1191 457 1160 514 q 1222 319 1222 400 m 1049 375 q 994 457 1036 422 q 875 492 953 492 q 756 458 797 492 q 701 375 714 424 l 1049 375 m 526 449 l 518 449 l 372 235 l 543 235 l 526 449 z "},"Ç":{"ha":832,"x_min":83,"x_max":749,"o":"m 749 31 q 616 -3 672 6 q 511 -14 560 -11 l 504 -37 q 556 -83 538 -53 q 575 -149 575 -114 q 533 -247 575 -208 q 414 -286 490 -286 q 365 -282 392 -286 q 315 -268 338 -278 l 315 -169 l 358 -169 q 378 -189 367 -181 q 403 -197 390 -197 q 442 -182 429 -197 q 454 -150 454 -167 q 440 -120 454 -132 q 397 -108 426 -108 q 380 -109 390 -108 q 351 -112 369 -110 l 390 -6 q 271 33 326 6 q 174 99 215 60 q 108 190 132 139 q 83 303 83 242 q 116 433 83 374 q 203 533 149 492 q 330 598 258 575 q 481 621 401 621 q 597 614 533 621 q 749 576 660 607 l 749 431 l 706 431 q 481 490 578 490 q 392 477 433 490 q 319 440 350 464 q 269 381 288 417 q 251 303 251 346 q 269 224 251 258 q 319 166 288 190 q 392 129 350 142 q 481 117 433 117 q 706 176 578 117 l 749 176 l 749 31 z "},"È":{"ha":860,"x_min":83,"x_max":776,"o":"m 454 671 l 235 863 l 235 906 l 399 906 l 551 714 l 551 671 l 454 671 m 776 319 q 774 282 776 304 q 767 244 771 260 l 263 244 q 289 198 269 221 q 338 156 308 175 q 403 126 367 138 q 478 115 439 115 q 593 131 529 115 q 721 176 657 147 l 764 176 l 764 31 q 603 -7 675 0 q 478 -14 531 -14 q 327 10 399 -14 q 201 76 256 33 q 115 178 147 119 q 83 308 83 238 q 107 435 83 378 q 176 534 131 493 q 285 598 221 575 q 429 621 349 621 q 552 603 490 621 q 664 550 614 586 q 745 457 714 514 q 776 319 776 400 m 603 375 q 549 457 590 422 q 429 492 507 492 q 310 458 351 492 q 256 375 268 424 l 603 375 z "},"É":{"ha":860,"x_min":83,"x_max":776,"o":"m 463 671 l 365 671 l 365 714 l 518 906 l 682 906 l 682 858 l 463 671 m 776 319 q 774 282 776 304 q 767 244 771 260 l 263 244 q 289 198 269 221 q 338 156 308 175 q 403 126 367 138 q 478 115 439 115 q 593 131 529 115 q 721 176 657 147 l 764 176 l 764 31 q 603 -7 675 0 q 478 -14 531 -14 q 327 10 399 -14 q 201 76 256 33 q 115 178 147 119 q 83 308 83 238 q 107 435 83 378 q 176 534 131 493 q 285 598 221 575 q 429 621 349 621 q 552 603 490 621 q 664 550 614 586 q 745 457 714 514 q 776 319 776 400 m 603 375 q 549 457 590 422 q 429 492 507 492 q 310 458 351 492 q 256 375 268 424 l 603 375 z "},"Ê":{"ha":860,"x_min":83,"x_max":776,"o":"m 556 671 l 460 806 l 451 806 l 356 671 l 232 671 l 232 714 l 399 906 l 513 906 l 681 714 l 681 671 l 556 671 m 776 319 q 774 282 776 304 q 767 244 771 260 l 263 244 q 289 198 269 221 q 338 156 308 175 q 403 126 367 138 q 478 115 439 115 q 593 131 529 115 q 721 176 657 147 l 764 176 l 764 31 q 603 -7 675 0 q 478 -14 531 -14 q 327 10 399 -14 q 201 76 256 33 q 115 178 147 119 q 83 308 83 238 q 107 435 83 378 q 176 534 131 493 q 285 598 221 575 q 429 621 349 621 q 552 603 490 621 q 664 550 614 586 q 745 457 714 514 q 776 319 776 400 m 603 375 q 549 457 590 422 q 429 492 507 492 q 310 458 351 492 q 256 375 268 424 l 603 375 z "},"Ë":{"ha":860,"x_min":83,"x_max":776,"o":"m 658 760 q 634 700 658 724 q 574 676 610 676 q 514 700 538 676 q 490 760 490 724 q 514 820 490 796 q 574 844 538 844 q 634 820 610 844 q 658 760 658 796 m 411 760 q 387 700 411 724 q 326 676 363 676 q 267 700 290 676 q 243 760 243 724 q 267 820 243 796 q 326 844 290 844 q 387 820 363 844 q 411 760 411 796 m 776 319 q 774 282 776 304 q 767 244 771 260 l 263 244 q 289 198 269 221 q 338 156 308 175 q 403 126 367 138 q 478 115 439 115 q 593 131 529 115 q 721 176 657 147 l 764 176 l 764 31 q 603 -7 675 0 q 478 -14 531 -14 q 327 10 399 -14 q 201 76 256 33 q 115 178 147 119 q 83 308 83 238 q 107 435 83 378 q 176 534 131 493 q 285 598 221 575 q 429 621 349 621 q 552 603 490 621 q 664 550 614 586 q 745 457 714 514 q 776 319 776 400 m 603 375 q 549 457 590 422 q 429 492 507 492 q 310 458 351 492 q 256 375 268 424 l 603 375 z "},"Ì":{"ha":381,"x_min":6,"x_max":322,"o":"m 225 671 l 6 863 l 6 906 l 169 906 l 322 714 l 322 671 l 225 671 m 111 0 l 111 608 l 269 608 l 269 0 l 111 0 z "},"Í":{"ha":381,"x_min":67,"x_max":383,"o":"m 164 671 l 67 671 l 67 714 l 219 906 l 383 906 l 383 858 l 164 671 m 111 0 l 111 608 l 269 608 l 269 0 l 111 0 z "},"Î":{"ha":381,"x_min":-35,"x_max":415,"o":"m 290 671 l 194 806 l 186 806 l 90 671 l -35 671 l -35 714 l 132 906 l 246 906 l 415 714 l 415 671 l 290 671 m 111 0 l 111 608 l 269 608 l 269 0 l 111 0 z "},"Ï":{"ha":381,"x_min":-18,"x_max":399,"o":"m 399 760 q 374 700 399 724 q 314 676 350 676 q 253 700 278 676 q 229 760 229 724 q 253 820 229 796 q 313 844 276 844 q 374 820 349 844 q 399 760 399 796 m 151 760 q 127 700 151 724 q 67 676 103 676 q 6 700 31 676 q -18 760 -18 724 q 6 820 -18 796 q 65 844 29 844 q 126 820 101 844 q 151 760 151 796 m 111 0 l 111 608 l 269 608 l 269 0 l 111 0 z "},"Ð":{"ha":885,"x_min":56,"x_max":829,"o":"m 829 317 q 796 188 829 246 q 708 88 763 129 q 581 23 653 46 q 431 0 508 0 l 164 0 l 164 254 l 56 254 l 56 364 l 164 364 l 164 621 l 431 621 q 581 600 508 621 q 708 540 653 579 q 796 444 763 501 q 829 317 829 388 m 661 317 q 643 392 661 360 q 594 446 625 424 q 521 479 563 468 q 431 490 479 490 l 315 490 l 315 364 l 501 364 l 501 254 l 315 254 l 315 117 l 431 117 q 519 131 478 117 q 592 172 561 146 q 642 235 624 199 q 661 317 661 272 z "},"Ñ":{"ha":919,"x_min":111,"x_max":808,"o":"m 701 756 q 681 731 693 744 q 651 704 668 717 q 614 683 635 692 q 568 675 593 675 q 513 686 536 675 q 467 710 489 697 q 425 735 446 724 q 379 746 404 746 q 334 726 356 746 q 289 674 313 706 l 246 674 l 246 788 q 268 813 256 799 q 297 839 281 826 q 333 860 313 851 q 379 868 353 868 q 434 857 410 868 q 480 833 458 846 q 522 808 501 819 q 568 797 543 797 q 613 817 592 797 q 658 869 635 838 l 701 869 l 701 756 m 689 0 l 271 389 l 263 389 l 263 0 l 111 0 l 111 608 l 235 608 l 649 225 l 657 225 l 657 608 l 808 608 l 808 0 l 689 0 z "},"Ò":{"ha":990,"x_min":83,"x_max":907,"o":"m 540 671 l 321 863 l 321 906 l 485 906 l 638 714 l 638 671 l 540 671 m 907 304 q 877 184 907 242 q 792 83 847 126 q 662 13 738 39 q 494 -14 586 -14 q 327 13 403 -14 q 197 83 251 39 q 113 184 143 126 q 83 304 83 242 q 114 427 83 369 q 199 528 144 485 q 330 596 254 571 q 494 621 406 621 q 659 596 583 621 q 790 528 735 571 q 876 427 844 485 q 907 304 907 369 m 739 304 q 721 375 739 342 q 670 433 703 408 q 592 473 638 458 q 494 488 547 488 q 397 473 442 488 q 319 433 351 458 q 269 375 288 408 q 251 304 251 342 q 269 233 251 267 q 320 174 288 200 q 397 134 353 149 q 494 119 442 119 q 592 134 547 119 q 669 174 636 149 q 720 233 701 200 q 739 304 739 267 z "},"Ó":{"ha":990,"x_min":83,"x_max":907,"o":"m 492 671 l 394 671 l 394 714 l 547 906 l 711 906 l 711 858 l 492 671 m 907 304 q 877 184 907 242 q 792 83 847 126 q 662 13 738 39 q 494 -14 586 -14 q 327 13 403 -14 q 197 83 251 39 q 113 184 143 126 q 83 304 83 242 q 114 427 83 369 q 199 528 144 485 q 330 596 254 571 q 494 621 406 621 q 659 596 583 621 q 790 528 735 571 q 876 427 844 485 q 907 304 907 369 m 739 304 q 721 375 739 342 q 670 433 703 408 q 592 473 638 458 q 494 488 547 488 q 397 473 442 488 q 319 433 351 458 q 269 375 288 408 q 251 304 251 342 q 269 233 251 267 q 320 174 288 200 q 397 134 353 149 q 494 119 442 119 q 592 134 547 119 q 669 174 636 149 q 720 233 701 200 q 739 304 739 267 z "},"Ô":{"ha":990,"x_min":83,"x_max":907,"o":"m 594 671 l 499 806 l 490 806 l 394 671 l 271 671 l 271 714 l 438 906 l 551 906 l 719 714 l 719 671 l 594 671 m 907 304 q 877 184 907 242 q 792 83 847 126 q 662 13 738 39 q 494 -14 586 -14 q 327 13 403 -14 q 197 83 251 39 q 113 184 143 126 q 83 304 83 242 q 114 427 83 369 q 199 528 144 485 q 330 596 254 571 q 494 621 406 621 q 659 596 583 621 q 790 528 735 571 q 876 427 844 485 q 907 304 907 369 m 739 304 q 721 375 739 342 q 670 433 703 408 q 592 473 638 458 q 494 488 547 488 q 397 473 442 488 q 319 433 351 458 q 269 375 288 408 q 251 304 251 342 q 269 233 251 267 q 320 174 288 200 q 397 134 353 149 q 494 119 442 119 q 592 134 547 119 q 669 174 636 149 q 720 233 701 200 q 739 304 739 267 z "},"Õ":{"ha":990,"x_min":83,"x_max":907,"o":"m 724 756 q 703 731 715 744 q 674 704 690 717 q 636 683 657 692 q 590 675 615 675 q 535 686 558 675 q 490 710 511 697 q 447 735 468 724 q 401 746 426 746 q 356 726 378 746 q 311 674 335 706 l 267 674 l 267 788 q 289 813 276 799 q 317 839 301 826 q 353 860 333 851 q 400 868 374 868 q 455 857 431 868 q 501 833 479 846 q 543 808 522 819 q 589 797 564 797 q 634 817 613 797 q 679 869 656 838 l 724 869 l 724 756 m 907 304 q 877 184 907 242 q 792 83 847 126 q 662 13 738 39 q 494 -14 586 -14 q 327 13 403 -14 q 197 83 251 39 q 113 184 143 126 q 83 304 83 242 q 114 427 83 369 q 199 528 144 485 q 330 596 254 571 q 494 621 406 621 q 659 596 583 621 q 790 528 735 571 q 876 427 844 485 q 907 304 907 369 m 739 304 q 721 375 739 342 q 670 433 703 408 q 592 473 638 458 q 494 488 547 488 q 397 473 442 488 q 319 433 351 458 q 269 375 288 408 q 251 304 251 342 q 269 233 251 267 q 320 174 288 200 q 397 134 353 149 q 494 119 442 119 q 592 134 547 119 q 669 174 636 149 q 720 233 701 200 q 739 304 739 267 z "},"Ö":{"ha":990,"x_min":83,"x_max":907,"o":"m 703 760 q 678 700 703 724 q 618 676 654 676 q 558 700 582 676 q 535 760 535 724 q 558 820 535 796 q 618 844 582 844 q 678 820 654 844 q 703 760 703 796 m 456 760 q 431 700 456 724 q 371 676 407 676 q 311 700 335 676 q 288 760 288 724 q 311 820 288 796 q 371 844 335 844 q 431 820 407 844 q 456 760 456 796 m 907 304 q 877 184 907 242 q 792 83 847 126 q 662 13 738 39 q 494 -14 586 -14 q 327 13 403 -14 q 197 83 251 39 q 113 184 143 126 q 83 304 83 242 q 114 427 83 369 q 199 528 144 485 q 330 596 254 571 q 494 621 406 621 q 659 596 583 621 q 790 528 735 571 q 876 427 844 485 q 907 304 907 369 m 739 304 q 721 375 739 342 q 670 433 703 408 q 592 473 638 458 q 494 488 547 488 q 397 473 442 488 q 319 433 351 458 q 269 375 288 408 q 251 304 251 342 q 269 233 251 267 q 320 174 288 200 q 397 134 353 149 q 494 119 442 119 q 592 134 547 119 q 669 174 636 149 q 720 233 701 200 q 739 304 739 267 z "},"×":{"ha":788,"x_min":71,"x_max":715,"o":"m 618 7 l 394 235 l 168 7 l 71 103 l 297 328 l 79 546 l 172 643 l 394 425 l 615 644 l 708 546 l 489 328 l 715 103 l 618 7 z "},"Ø":{"ha":990,"x_min":83,"x_max":907,"o":"m 907 304 q 877 184 907 242 q 792 83 847 126 q 662 13 738 39 q 494 -14 586 -14 q 383 -2 435 -14 q 286 29 331 10 l 183 -74 l 122 -12 l 208 74 q 117 178 150 118 q 83 304 83 238 q 114 427 83 369 q 199 528 144 485 q 330 596 254 571 q 494 621 406 621 q 610 609 556 621 q 710 575 664 597 l 801 667 l 863 607 l 786 529 q 875 428 843 486 q 907 304 907 371 m 739 304 q 724 370 739 339 q 681 425 708 401 l 393 136 q 494 119 439 119 q 592 134 547 119 q 669 174 636 149 q 720 233 701 200 q 739 304 739 267 m 604 469 q 494 488 553 488 q 397 473 442 488 q 319 433 351 458 q 269 375 288 408 q 251 304 251 342 q 268 236 251 268 q 314 179 285 204 l 604 469 z "},"Ù":{"ha":807,"x_min":83,"x_max":724,"o":"m 400 671 l 181 863 l 181 906 l 344 906 l 497 714 l 497 671 l 400 671 m 724 271 q 706 160 724 213 q 651 70 689 108 q 551 9 613 32 q 403 -14 490 -14 q 254 9 315 -14 q 156 70 193 32 q 101 160 118 108 q 83 271 83 213 l 83 608 l 242 608 l 242 271 q 249 215 242 242 q 274 167 256 188 q 324 134 293 146 q 403 122 354 122 q 482 134 450 122 q 532 167 514 146 q 558 215 550 188 q 565 271 565 242 l 565 608 l 724 608 l 724 271 z "},"Ú":{"ha":807,"x_min":83,"x_max":724,"o":"m 407 671 l 310 671 l 310 714 l 463 906 l 626 906 l 626 858 l 407 671 m 724 271 q 706 160 724 213 q 651 70 689 108 q 551 9 613 32 q 403 -14 490 -14 q 254 9 315 -14 q 156 70 193 32 q 101 160 118 108 q 83 271 83 213 l 83 608 l 242 608 l 242 271 q 249 215 242 242 q 274 167 256 188 q 324 134 293 146 q 403 122 354 122 q 482 134 450 122 q 532 167 514 146 q 558 215 550 188 q 565 271 565 242 l 565 608 l 724 608 l 724 271 z "},"Û":{"ha":807,"x_min":83,"x_max":724,"o":"m 503 671 l 407 806 l 399 806 l 303 671 l 179 671 l 179 714 l 346 906 l 460 906 l 628 714 l 628 671 l 503 671 m 724 271 q 706 160 724 213 q 651 70 689 108 q 551 9 613 32 q 403 -14 490 -14 q 254 9 315 -14 q 156 70 193 32 q 101 160 118 108 q 83 271 83 213 l 83 608 l 242 608 l 242 271 q 249 215 242 242 q 274 167 256 188 q 324 134 293 146 q 403 122 354 122 q 482 134 450 122 q 532 167 514 146 q 558 215 550 188 q 565 271 565 242 l 565 608 l 724 608 l 724 271 z "},"Ü":{"ha":807,"x_min":83,"x_max":724,"o":"m 611 760 q 587 700 611 724 q 526 676 563 676 q 467 700 490 676 q 443 760 443 724 q 467 820 443 796 q 526 844 490 844 q 587 820 563 844 q 611 760 611 796 m 364 760 q 340 700 364 724 q 279 676 315 676 q 219 700 243 676 q 196 760 196 724 q 219 820 196 796 q 279 844 243 844 q 340 820 315 844 q 364 760 364 796 m 724 271 q 706 160 724 213 q 651 70 689 108 q 551 9 613 32 q 403 -14 490 -14 q 254 9 315 -14 q 156 70 193 32 q 101 160 118 108 q 83 271 83 213 l 83 608 l 242 608 l 242 271 q 249 215 242 242 q 274 167 256 188 q 324 134 293 146 q 403 122 354 122 q 482 134 450 122 q 532 167 514 146 q 558 215 550 188 q 565 271 565 242 l 565 608 l 724 608 l 724 271 z "},"Ý":{"ha":810,"x_min":28,"x_max":782,"o":"m 403 671 l 306 671 l 306 714 l 458 906 l 622 906 l 622 858 l 403 671 m 357 -278 l 207 -278 l 207 -235 l 318 -14 l 28 565 l 28 608 l 186 608 l 401 163 l 410 163 l 625 608 l 782 608 l 782 565 l 357 -278 z "},"Þ":{"ha":725,"x_min":111,"x_max":642,"o":"m 642 399 q 628 316 642 358 q 584 240 615 274 q 501 183 553 206 q 369 161 449 161 l 272 161 l 272 0 l 111 0 l 111 774 l 272 774 l 272 621 l 369 621 q 494 601 443 621 q 578 551 546 582 q 626 480 611 519 q 642 399 642 440 m 485 399 q 478 430 485 414 q 459 459 472 446 q 424 481 446 472 q 369 489 401 489 l 272 489 l 272 283 l 369 283 q 456 313 426 283 q 485 399 485 343 z "},"ß":{"ha":794,"x_min":111,"x_max":711,"o":"m 711 183 q 694 108 711 143 q 647 45 678 72 q 570 2 615 18 q 467 -14 525 -14 q 394 -7 428 -14 q 324 6 361 0 l 324 133 l 367 133 q 419 117 390 122 q 467 111 447 111 q 528 133 507 111 q 550 186 550 154 q 524 242 550 221 q 456 264 499 264 l 354 264 l 354 382 l 438 382 q 486 399 475 382 q 497 440 497 417 q 467 482 497 464 q 388 500 438 500 q 304 472 339 500 q 269 392 269 444 l 269 0 l 111 0 l 111 392 q 132 490 111 447 q 190 563 153 533 q 279 607 228 592 q 392 622 331 622 q 499 610 450 622 q 583 574 547 597 q 638 516 618 550 q 658 440 658 482 q 645 383 658 411 q 610 343 632 356 l 610 335 q 684 278 657 319 q 711 183 711 236 z "},"à":{"ha":818,"x_min":35,"x_max":763,"o":"m 410 671 l 190 863 l 190 906 l 354 906 l 507 714 l 507 671 l 410 671 m 613 0 l 546 122 l 119 -50 l 35 47 l 333 522 l 297 586 l 297 629 l 456 629 l 763 43 l 763 0 l 613 0 m 407 383 l 399 383 l 207 114 l 213 108 l 486 238 l 407 383 z "},"á":{"ha":818,"x_min":35,"x_max":763,"o":"m 389 671 l 292 671 l 292 714 l 444 906 l 608 906 l 608 858 l 389 671 m 613 0 l 546 122 l 119 -50 l 35 47 l 333 522 l 297 586 l 297 629 l 456 629 l 763 43 l 763 0 l 613 0 m 407 383 l 399 383 l 207 114 l 213 108 l 486 238 l 407 383 z "},"â":{"ha":818,"x_min":35,"x_max":763,"o":"m 503 671 l 407 806 l 399 806 l 303 671 l 179 671 l 179 714 l 346 906 l 460 906 l 628 714 l 628 671 l 503 671 m 613 0 l 546 122 l 119 -50 l 35 47 l 333 522 l 297 586 l 297 629 l 456 629 l 763 43 l 763 0 l 613 0 m 407 383 l 399 383 l 207 114 l 213 108 l 486 238 l 407 383 z "},"ã":{"ha":818,"x_min":35,"x_max":763,"o":"m 622 756 q 601 731 614 744 q 572 704 589 717 q 535 683 556 692 q 489 675 514 675 q 433 686 457 675 q 388 710 410 697 q 346 735 367 724 q 300 746 325 746 q 255 726 276 746 q 210 674 233 706 l 167 674 l 167 788 q 189 813 176 799 q 217 839 201 826 q 253 860 233 851 q 300 868 274 868 q 355 857 331 868 q 401 833 379 846 q 443 808 422 819 q 489 797 464 797 q 534 817 513 797 q 579 869 556 838 l 622 869 l 622 756 m 613 0 l 546 122 l 119 -50 l 35 47 l 333 522 l 297 586 l 297 629 l 456 629 l 763 43 l 763 0 l 613 0 m 407 383 l 399 383 l 207 114 l 213 108 l 486 238 l 407 383 z "},"ä":{"ha":818,"x_min":35,"x_max":763,"o":"m 603 760 q 578 700 603 724 q 518 676 554 676 q 458 700 482 676 q 435 760 435 724 q 458 820 435 796 q 518 844 482 844 q 578 820 554 844 q 603 760 603 796 m 356 760 q 331 700 356 724 q 271 676 307 676 q 211 700 235 676 q 188 760 188 724 q 211 820 188 796 q 271 844 235 844 q 331 820 307 844 q 356 760 356 796 m 613 0 l 546 122 l 119 -50 l 35 47 l 333 522 l 297 586 l 297 629 l 456 629 l 763 43 l 763 0 l 613 0 m 407 383 l 399 383 l 207 114 l 213 108 l 486 238 l 407 383 z "},"å":{"ha":818,"x_min":35,"x_max":763,"o":"m 560 839 q 547 774 560 804 q 510 720 533 743 q 457 684 488 697 q 392 671 426 671 q 326 684 357 671 q 273 720 296 697 q 237 774 250 743 q 224 839 224 804 q 237 904 224 874 q 273 958 250 935 q 326 994 296 981 q 392 1007 357 1007 q 457 994 426 1007 q 510 958 488 981 q 547 904 533 935 q 560 839 560 874 m 613 0 l 546 122 l 119 -50 l 35 47 l 333 522 l 297 586 l 297 629 l 456 629 l 763 43 l 763 0 l 613 0 m 451 839 q 434 881 451 864 q 392 899 417 899 q 349 881 367 899 q 332 839 332 864 q 349 797 332 814 q 392 779 367 779 q 434 797 417 779 q 451 839 451 814 m 407 383 l 399 383 l 207 114 l 213 108 l 486 238 l 407 383 z "},"æ":{"ha":1222,"x_min":28,"x_max":1139,"o":"m 1139 31 q 985 -7 1050 0 q 867 -14 919 -14 q 682 22 768 -14 q 542 122 596 58 l 113 -50 l 28 47 l 343 490 l 290 586 l 290 629 l 449 629 l 529 475 q 592 537 556 510 q 673 583 629 564 q 766 611 717 601 q 867 621 815 621 q 984 614 919 621 q 1138 576 1049 607 l 1138 431 l 1094 431 q 867 492 964 492 q 728 460 783 492 q 650 375 674 428 l 1074 375 l 1074 244 l 651 244 q 731 152 675 189 q 867 115 788 115 q 1096 176 965 115 l 1139 176 l 1139 31 m 417 351 l 408 351 l 200 114 l 206 108 l 479 238 l 417 351 z "},"ç":{"ha":832,"x_min":83,"x_max":749,"o":"m 749 31 q 616 -3 672 6 q 511 -14 560 -11 l 504 -37 q 556 -83 538 -53 q 575 -149 575 -114 q 533 -247 575 -208 q 414 -286 490 -286 q 365 -282 392 -286 q 315 -268 338 -278 l 315 -169 l 358 -169 q 378 -189 367 -181 q 403 -197 390 -197 q 442 -182 429 -197 q 454 -150 454 -167 q 440 -120 454 -132 q 397 -108 426 -108 q 380 -109 390 -108 q 351 -112 369 -110 l 390 -6 q 271 33 326 6 q 174 99 215 60 q 108 190 132 139 q 83 303 83 242 q 116 433 83 374 q 203 533 149 492 q 330 598 258 575 q 481 621 401 621 q 597 614 533 621 q 749 576 660 607 l 749 431 l 706 431 q 481 490 578 490 q 392 477 433 490 q 319 440 350 464 q 269 381 288 417 q 251 303 251 346 q 269 224 251 258 q 319 166 288 190 q 392 129 350 142 q 481 117 433 117 q 706 176 578 117 l 749 176 l 749 31 z "},"è":{"ha":833,"x_min":83,"x_max":750,"o":"m 469 671 l 250 863 l 250 906 l 414 906 l 567 714 l 567 671 l 469 671 m 750 31 q 596 -7 661 0 q 478 -14 531 -14 q 327 10 399 -14 q 201 76 256 33 q 115 178 147 119 q 83 308 83 238 q 116 438 83 379 q 203 536 149 496 q 328 599 257 576 q 478 621 400 621 q 595 614 531 621 q 749 576 660 607 l 749 431 l 706 431 q 478 492 575 492 q 340 460 394 492 q 261 375 285 428 l 685 375 l 685 244 l 263 244 q 342 152 286 189 q 478 115 399 115 q 707 176 576 115 l 750 176 l 750 31 z "},"é":{"ha":833,"x_min":83,"x_max":750,"o":"m 424 671 l 326 671 l 326 714 l 479 906 l 643 906 l 643 858 l 424 671 m 750 31 q 596 -7 661 0 q 478 -14 531 -14 q 327 10 399 -14 q 201 76 256 33 q 115 178 147 119 q 83 308 83 238 q 116 438 83 379 q 203 536 149 496 q 328 599 257 576 q 478 621 400 621 q 595 614 531 621 q 749 576 660 607 l 749 431 l 706 431 q 478 492 575 492 q 340 460 394 492 q 261 375 285 428 l 685 375 l 685 244 l 263 244 q 342 152 286 189 q 478 115 399 115 q 707 176 576 115 l 750 176 l 750 31 z "},"ê":{"ha":833,"x_min":83,"x_max":750,"o":"m 556 671 l 460 806 l 451 806 l 356 671 l 232 671 l 232 714 l 399 906 l 513 906 l 681 714 l 681 671 l 556 671 m 750 31 q 596 -7 661 0 q 478 -14 531 -14 q 327 10 399 -14 q 201 76 256 33 q 115 178 147 119 q 83 308 83 238 q 116 438 83 379 q 203 536 149 496 q 328 599 257 576 q 478 621 400 621 q 595 614 531 621 q 749 576 660 607 l 749 431 l 706 431 q 478 492 575 492 q 340 460 394 492 q 261 375 285 428 l 685 375 l 685 244 l 263 244 q 342 152 286 189 q 478 115 399 115 q 707 176 576 115 l 750 176 l 750 31 z "},"ë":{"ha":833,"x_min":83,"x_max":750,"o":"m 656 760 q 631 700 656 724 q 571 676 607 676 q 511 700 535 676 q 488 760 488 724 q 511 820 488 796 q 571 844 535 844 q 631 820 607 844 q 656 760 656 796 m 408 760 q 384 700 408 724 q 324 676 360 676 q 264 700 288 676 q 240 760 240 724 q 264 820 240 796 q 324 844 288 844 q 384 820 360 844 q 408 760 408 796 m 750 31 q 596 -7 661 0 q 478 -14 531 -14 q 327 10 399 -14 q 201 76 256 33 q 115 178 147 119 q 83 308 83 238 q 116 438 83 379 q 203 536 149 496 q 328 599 257 576 q 478 621 400 621 q 595 614 531 621 q 749 576 660 607 l 749 431 l 706 431 q 478 492 575 492 q 340 460 394 492 q 261 375 285 428 l 685 375 l 685 244 l 263 244 q 342 152 286 189 q 478 115 399 115 q 707 176 576 115 l 750 176 l 750 31 z "},"ì":{"ha":381,"x_min":6,"x_max":322,"o":"m 225 671 l 6 863 l 6 906 l 169 906 l 322 714 l 322 671 l 225 671 m 111 0 l 111 608 l 269 608 l 269 0 l 111 0 z "},"í":{"ha":381,"x_min":67,"x_max":383,"o":"m 164 671 l 67 671 l 67 714 l 219 906 l 383 906 l 383 858 l 164 671 m 111 0 l 111 608 l 269 608 l 269 0 l 111 0 z "},"î":{"ha":381,"x_min":-35,"x_max":415,"o":"m 290 671 l 194 806 l 186 806 l 90 671 l -35 671 l -35 714 l 132 906 l 246 906 l 415 714 l 415 671 l 290 671 m 111 0 l 111 608 l 269 608 l 269 0 l 111 0 z "},"ï":{"ha":381,"x_min":-18,"x_max":399,"o":"m 399 760 q 374 700 399 724 q 314 676 350 676 q 253 700 278 676 q 229 760 229 724 q 253 820 229 796 q 313 844 276 844 q 374 820 349 844 q 399 760 399 796 m 151 760 q 127 700 151 724 q 67 676 103 676 q 6 700 31 676 q -18 760 -18 724 q 6 820 -18 796 q 65 844 29 844 q 126 820 101 844 q 151 760 151 796 m 111 0 l 111 608 l 269 608 l 269 0 l 111 0 z "},"ð":{"ha":949,"x_min":83,"x_max":865,"o":"m 865 304 q 838 184 865 242 q 759 83 810 126 q 635 13 708 39 q 472 -14 563 -14 q 301 9 374 -14 q 180 71 228 32 q 108 160 132 110 q 83 263 83 210 q 101 363 83 317 q 156 445 119 410 q 246 503 192 481 q 374 529 300 525 l 406 446 l 392 408 q 251 263 251 393 q 308 161 251 203 q 472 119 365 119 q 567 134 525 119 q 638 174 608 149 q 682 233 667 200 q 697 304 697 267 q 674 391 697 351 q 610 458 650 431 l 361 628 l 215 543 l 160 636 l 261 694 l 164 761 l 250 878 l 403 776 l 551 863 l 607 769 l 503 710 l 708 572 q 823 453 781 524 q 865 304 865 383 z "},"ñ":{"ha":919,"x_min":111,"x_max":808,"o":"m 701 756 q 681 731 693 744 q 651 704 668 717 q 614 683 635 692 q 568 675 593 675 q 513 686 536 675 q 467 710 489 697 q 425 735 446 724 q 379 746 404 746 q 334 726 356 746 q 289 674 313 706 l 246 674 l 246 788 q 268 813 256 799 q 297 839 281 826 q 333 860 313 851 q 379 868 353 868 q 434 857 410 868 q 480 833 458 846 q 522 808 501 819 q 568 797 543 797 q 613 817 592 797 q 658 869 635 838 l 701 869 l 701 756 m 689 0 l 271 389 l 263 389 l 263 0 l 111 0 l 111 608 l 235 608 l 649 225 l 657 225 l 657 608 l 808 608 l 808 0 l 689 0 z "},"ò":{"ha":990,"x_min":83,"x_max":907,"o":"m 507 671 l 288 863 l 288 906 l 451 906 l 604 714 l 604 671 l 507 671 m 907 304 q 877 184 907 242 q 792 83 847 126 q 662 13 738 39 q 494 -14 586 -14 q 327 13 403 -14 q 197 83 251 39 q 113 184 143 126 q 83 304 83 242 q 114 427 83 369 q 199 528 144 485 q 330 596 254 571 q 494 621 406 621 q 659 596 583 621 q 790 528 735 571 q 876 427 844 485 q 907 304 907 369 m 739 304 q 721 375 739 342 q 670 433 703 408 q 592 473 638 458 q 494 488 547 488 q 397 473 442 488 q 319 433 351 458 q 269 375 288 408 q 251 304 251 342 q 269 233 251 267 q 320 174 288 200 q 397 134 353 149 q 494 119 442 119 q 592 134 547 119 q 669 174 636 149 q 720 233 701 200 q 739 304 739 267 z "},"ó":{"ha":990,"x_min":83,"x_max":907,"o":"m 468 671 l 371 671 l 371 714 l 524 906 l 688 906 l 688 858 l 468 671 m 907 304 q 877 184 907 242 q 792 83 847 126 q 662 13 738 39 q 494 -14 586 -14 q 327 13 403 -14 q 197 83 251 39 q 113 184 143 126 q 83 304 83 242 q 114 427 83 369 q 199 528 144 485 q 330 596 254 571 q 494 621 406 621 q 659 596 583 621 q 790 528 735 571 q 876 427 844 485 q 907 304 907 369 m 739 304 q 721 375 739 342 q 670 433 703 408 q 592 473 638 458 q 494 488 547 488 q 397 473 442 488 q 319 433 351 458 q 269 375 288 408 q 251 304 251 342 q 269 233 251 267 q 320 174 288 200 q 397 134 353 149 q 494 119 442 119 q 592 134 547 119 q 669 174 636 149 q 720 233 701 200 q 739 304 739 267 z "},"ô":{"ha":990,"x_min":83,"x_max":907,"o":"m 594 671 l 499 806 l 490 806 l 394 671 l 271 671 l 271 714 l 438 906 l 551 906 l 719 714 l 719 671 l 594 671 m 907 304 q 877 184 907 242 q 792 83 847 126 q 662 13 738 39 q 494 -14 586 -14 q 327 13 403 -14 q 197 83 251 39 q 113 184 143 126 q 83 304 83 242 q 114 427 83 369 q 199 528 144 485 q 330 596 254 571 q 494 621 406 621 q 659 596 583 621 q 790 528 735 571 q 876 427 844 485 q 907 304 907 369 m 739 304 q 721 375 739 342 q 670 433 703 408 q 592 473 638 458 q 494 488 547 488 q 397 473 442 488 q 319 433 351 458 q 269 375 288 408 q 251 304 251 342 q 269 233 251 267 q 320 174 288 200 q 397 134 353 149 q 494 119 442 119 q 592 134 547 119 q 669 174 636 149 q 720 233 701 200 q 739 304 739 267 z "},"õ":{"ha":990,"x_min":83,"x_max":907,"o":"m 724 756 q 703 731 715 744 q 674 704 690 717 q 636 683 657 692 q 590 675 615 675 q 535 686 558 675 q 490 710 511 697 q 447 735 468 724 q 401 746 426 746 q 356 726 378 746 q 311 674 335 706 l 267 674 l 267 788 q 289 813 276 799 q 317 839 301 826 q 353 860 333 851 q 400 868 374 868 q 455 857 431 868 q 501 833 479 846 q 543 808 522 819 q 589 797 564 797 q 634 817 613 797 q 679 869 656 838 l 724 869 l 724 756 m 907 304 q 877 184 907 242 q 792 83 847 126 q 662 13 738 39 q 494 -14 586 -14 q 327 13 403 -14 q 197 83 251 39 q 113 184 143 126 q 83 304 83 242 q 114 427 83 369 q 199 528 144 485 q 330 596 254 571 q 494 621 406 621 q 659 596 583 621 q 790 528 735 571 q 876 427 844 485 q 907 304 907 369 m 739 304 q 721 375 739 342 q 670 433 703 408 q 592 473 638 458 q 494 488 547 488 q 397 473 442 488 q 319 433 351 458 q 269 375 288 408 q 251 304 251 342 q 269 233 251 267 q 320 174 288 200 q 397 134 353 149 q 494 119 442 119 q 592 134 547 119 q 669 174 636 149 q 720 233 701 200 q 739 304 739 267 z "},"ö":{"ha":990,"x_min":83,"x_max":907,"o":"m 703 760 q 678 700 703 724 q 618 676 654 676 q 558 700 582 676 q 535 760 535 724 q 558 820 535 796 q 618 844 582 844 q 678 820 654 844 q 703 760 703 796 m 456 760 q 431 700 456 724 q 371 676 407 676 q 311 700 335 676 q 288 760 288 724 q 311 820 288 796 q 371 844 335 844 q 431 820 407 844 q 456 760 456 796 m 907 304 q 877 184 907 242 q 792 83 847 126 q 662 13 738 39 q 494 -14 586 -14 q 327 13 403 -14 q 197 83 251 39 q 113 184 143 126 q 83 304 83 242 q 114 427 83 369 q 199 528 144 485 q 330 596 254 571 q 494 621 406 621 q 659 596 583 621 q 790 528 735 571 q 876 427 844 485 q 907 304 907 369 m 739 304 q 721 375 739 342 q 670 433 703 408 q 592 473 638 458 q 494 488 547 488 q 397 473 442 488 q 319 433 351 458 q 269 375 288 408 q 251 304 251 342 q 269 233 251 267 q 320 174 288 200 q 397 134 353 149 q 494 119 442 119 q 592 134 547 119 q 669 174 636 149 q 720 233 701 200 q 739 304 739 267 z "},"÷":{"ha":788,"x_min":88,"x_max":700,"o":"m 485 604 q 457 537 485 561 q 394 513 429 513 q 328 540 356 513 q 300 604 300 567 q 326 670 300 642 q 394 699 353 699 q 460 672 435 699 q 485 604 485 644 m 88 264 l 88 399 l 700 399 l 700 264 l 88 264 m 485 56 q 457 -12 485 13 q 394 -36 429 -36 q 328 -9 356 -36 q 300 56 300 18 q 326 121 300 93 q 394 149 353 149 q 460 122 435 149 q 485 56 485 96 z "},"ø":{"ha":990,"x_min":83,"x_max":907,"o":"m 907 304 q 877 184 907 242 q 792 83 847 126 q 662 13 738 39 q 494 -14 586 -14 q 383 -2 435 -14 q 286 29 331 10 l 183 -74 l 122 -12 l 208 74 q 117 178 150 118 q 83 304 83 238 q 114 427 83 369 q 199 528 144 485 q 330 596 254 571 q 494 621 406 621 q 610 609 556 621 q 710 575 664 597 l 801 667 l 863 607 l 786 529 q 875 428 843 486 q 907 304 907 371 m 739 304 q 724 370 739 339 q 681 425 708 401 l 393 136 q 494 119 439 119 q 592 134 547 119 q 669 174 636 149 q 720 233 701 200 q 739 304 739 267 m 604 469 q 494 488 553 488 q 397 473 442 488 q 319 433 351 458 q 269 375 288 408 q 251 304 251 342 q 268 236 251 268 q 314 179 285 204 l 604 469 z "},"ù":{"ha":893,"x_min":83,"x_max":782,"o":"m 493 671 l 274 863 l 274 906 l 438 906 l 590 714 l 590 671 l 493 671 m 635 0 l 635 33 l 639 64 l 631 64 q 542 12 597 38 q 421 -14 486 -14 q 268 12 332 -14 q 163 79 204 38 q 103 175 122 121 q 83 288 83 229 q 101 392 83 340 q 144 485 119 443 q 197 560 169 528 q 243 608 224 593 l 406 608 l 406 565 q 351 512 379 542 q 299 447 322 482 q 261 372 276 413 q 246 288 246 332 q 256 227 246 257 q 286 174 265 197 q 340 137 307 151 q 421 122 374 122 q 488 133 456 122 q 546 158 519 143 q 592 191 572 174 q 624 222 613 208 l 624 608 l 782 608 l 782 0 l 635 0 z "},"ú":{"ha":893,"x_min":83,"x_max":782,"o":"m 481 671 l 383 671 l 383 714 l 536 906 l 700 906 l 700 858 l 481 671 m 635 0 l 635 33 l 639 64 l 631 64 q 542 12 597 38 q 421 -14 486 -14 q 268 12 332 -14 q 163 79 204 38 q 103 175 122 121 q 83 288 83 229 q 101 392 83 340 q 144 485 119 443 q 197 560 169 528 q 243 608 224 593 l 406 608 l 406 565 q 351 512 379 542 q 299 447 322 482 q 261 372 276 413 q 246 288 246 332 q 256 227 246 257 q 286 174 265 197 q 340 137 307 151 q 421 122 374 122 q 488 133 456 122 q 546 158 519 143 q 592 191 572 174 q 624 222 613 208 l 624 608 l 782 608 l 782 0 l 635 0 z "},"û":{"ha":893,"x_min":83,"x_max":782,"o":"m 597 671 l 501 806 l 493 806 l 397 671 l 274 671 l 274 714 l 440 906 l 554 906 l 722 714 l 722 671 l 597 671 m 635 0 l 635 33 l 639 64 l 631 64 q 542 12 597 38 q 421 -14 486 -14 q 268 12 332 -14 q 163 79 204 38 q 103 175 122 121 q 83 288 83 229 q 101 392 83 340 q 144 485 119 443 q 197 560 169 528 q 243 608 224 593 l 406 608 l 406 565 q 351 512 379 542 q 299 447 322 482 q 261 372 276 413 q 246 288 246 332 q 256 227 246 257 q 286 174 265 197 q 340 137 307 151 q 421 122 374 122 q 488 133 456 122 q 546 158 519 143 q 592 191 572 174 q 624 222 613 208 l 624 608 l 782 608 l 782 0 l 635 0 z "},"ü":{"ha":893,"x_min":83,"x_max":782,"o":"m 721 760 q 697 700 721 724 q 636 676 672 676 q 576 700 600 676 q 553 760 553 724 q 576 820 553 796 q 636 844 600 844 q 697 820 672 844 q 721 760 721 796 m 474 760 q 449 700 474 724 q 389 676 425 676 q 329 700 353 676 q 306 760 306 724 q 329 820 306 796 q 389 844 353 844 q 449 820 425 844 q 474 760 474 796 m 635 0 l 635 33 l 639 64 l 631 64 q 542 12 597 38 q 421 -14 486 -14 q 268 12 332 -14 q 163 79 204 38 q 103 175 122 121 q 83 288 83 229 q 101 392 83 340 q 144 485 119 443 q 197 560 169 528 q 243 608 224 593 l 406 608 l 406 565 q 351 512 379 542 q 299 447 322 482 q 261 372 276 413 q 246 288 246 332 q 256 227 246 257 q 286 174 265 197 q 340 137 307 151 q 421 122 374 122 q 488 133 456 122 q 546 158 519 143 q 592 191 572 174 q 624 222 613 208 l 624 608 l 782 608 l 782 0 l 635 0 z "},"ý":{"ha":810,"x_min":28,"x_max":782,"o":"m 403 671 l 306 671 l 306 714 l 458 906 l 622 906 l 622 858 l 403 671 m 357 -278 l 207 -278 l 207 -235 l 318 -14 l 28 565 l 28 608 l 186 608 l 401 163 l 410 163 l 625 608 l 782 608 l 782 565 l 357 -278 z "},"þ":{"ha":819,"x_min":111,"x_max":736,"o":"m 736 314 q 714 185 736 244 q 650 81 692 125 q 548 10 608 36 q 411 -15 488 -15 q 334 -8 369 -15 q 272 10 299 -1 l 264 10 l 271 -86 l 271 -269 l 111 -269 l 111 878 l 272 878 l 272 621 l 389 621 q 540 598 475 621 q 648 535 604 575 q 714 438 692 494 q 736 314 736 381 m 571 314 q 524 444 571 400 q 389 488 476 488 l 271 488 l 271 167 q 324 140 289 154 q 411 125 358 125 q 469 135 440 125 q 520 169 497 146 q 557 228 543 192 q 571 314 571 264 z "},"ÿ":{"ha":810,"x_min":28,"x_max":782,"o":"m 614 760 q 590 700 614 724 q 529 676 565 676 q 469 700 493 676 q 446 760 446 724 q 469 820 446 796 q 529 844 493 844 q 590 820 565 844 q 614 760 614 796 m 367 760 q 342 700 367 724 q 282 676 318 676 q 222 700 246 676 q 199 760 199 724 q 222 820 199 796 q 282 844 246 844 q 342 820 318 844 q 367 760 367 796 m 357 -278 l 207 -278 l 207 -235 l 318 -14 l 28 565 l 28 608 l 186 608 l 401 163 l 410 163 l 625 608 l 782 608 l 782 565 l 357 -278 z "},"Œ":{"ha":1515,"x_min":83,"x_max":1432,"o":"m 1432 319 q 1429 282 1432 304 q 1422 244 1426 260 l 918 244 q 944 198 925 221 q 993 156 964 175 q 1058 126 1022 138 q 1133 115 1094 115 q 1249 131 1185 115 q 1376 176 1313 147 l 1419 176 l 1419 31 q 1258 -7 1331 0 q 1133 -14 1186 -14 q 959 18 1040 -14 q 822 108 878 50 q 684 19 768 53 q 494 -14 600 -14 q 327 13 403 -14 q 197 83 251 39 q 113 184 143 126 q 83 304 83 242 q 114 427 83 369 q 199 528 144 485 q 330 596 254 571 q 494 621 406 621 q 673 591 592 621 q 810 511 754 561 q 924 592 854 564 q 1085 621 993 621 q 1208 603 1146 621 q 1319 550 1269 586 q 1401 457 1369 514 q 1432 319 1432 400 m 1258 375 q 1204 457 1246 422 q 1085 492 1163 492 q 965 458 1007 492 q 911 375 924 424 l 1258 375 m 739 304 q 721 375 739 342 q 670 433 703 408 q 592 473 638 458 q 494 488 547 488 q 397 473 442 488 q 319 433 351 458 q 269 375 288 408 q 251 304 251 342 q 269 233 251 267 q 320 174 288 200 q 397 134 353 149 q 494 119 442 119 q 592 134 547 119 q 669 174 636 149 q 720 233 701 200 q 739 304 739 267 z "},"œ":{"ha":1489,"x_min":83,"x_max":1406,"o":"m 1406 31 q 1251 -7 1317 0 q 1133 -14 1186 -14 q 958 19 1040 -14 q 821 110 876 51 q 683 20 767 54 q 494 -14 600 -14 q 327 13 403 -14 q 197 83 251 39 q 113 184 143 126 q 83 304 83 242 q 114 427 83 369 q 199 528 144 485 q 330 596 254 571 q 494 621 406 621 q 680 588 597 621 q 818 501 763 556 q 956 590 874 560 q 1133 621 1039 621 q 1251 614 1186 621 q 1404 576 1315 607 l 1404 431 l 1361 431 q 1133 492 1231 492 q 995 460 1050 492 q 917 375 940 428 l 1340 375 l 1340 244 l 918 244 q 998 152 942 189 q 1133 115 1054 115 q 1363 176 1232 115 l 1406 176 l 1406 31 m 739 304 q 721 375 739 342 q 670 433 703 408 q 592 473 638 458 q 494 488 547 488 q 397 473 442 488 q 319 433 351 458 q 269 375 288 408 q 251 304 251 342 q 269 233 251 267 q 320 174 288 200 q 397 134 353 149 q 494 119 442 119 q 592 134 547 119 q 669 174 636 149 q 720 233 701 200 q 739 304 739 267 z "},"Š":{"ha":739,"x_min":83,"x_max":656,"o":"m 446 671 l 332 671 l 164 863 l 164 906 l 289 906 l 385 771 l 393 771 l 489 906 l 613 906 l 613 863 l 446 671 m 656 165 q 635 92 656 125 q 579 35 615 58 q 492 -2 543 11 q 378 -15 440 -15 q 226 6 299 -15 q 101 47 154 26 l 83 204 l 126 204 q 182 172 151 189 q 245 142 213 156 q 312 119 278 128 q 378 111 346 111 q 431 117 410 111 q 464 131 451 122 q 482 149 476 139 q 488 165 488 158 q 460 197 488 183 q 390 226 432 211 q 299 258 349 240 q 208 300 250 275 q 139 360 167 325 q 111 444 111 394 q 129 514 111 482 q 181 569 147 546 q 262 607 214 593 q 369 621 310 621 q 513 603 449 621 q 615 571 576 586 l 633 411 l 590 411 q 488 469 546 443 q 369 494 431 494 q 318 488 336 494 q 291 474 300 482 q 281 457 282 465 q 279 444 279 449 q 298 417 279 431 q 342 392 317 404 q 392 372 367 381 q 429 360 417 364 q 506 331 465 347 q 579 293 546 315 q 634 240 613 271 q 656 165 656 208 z "},"š":{"ha":739,"x_min":83,"x_max":656,"o":"m 446 671 l 332 671 l 164 863 l 164 906 l 289 906 l 385 771 l 393 771 l 489 906 l 613 906 l 613 863 l 446 671 m 656 165 q 635 92 656 125 q 579 35 615 58 q 492 -2 543 11 q 378 -15 440 -15 q 226 6 299 -15 q 101 47 154 26 l 83 204 l 126 204 q 182 172 151 189 q 245 142 213 156 q 312 119 278 128 q 378 111 346 111 q 431 117 410 111 q 464 131 451 122 q 482 149 476 139 q 488 165 488 158 q 460 197 488 183 q 390 226 432 211 q 299 258 349 240 q 208 300 250 275 q 139 360 167 325 q 111 444 111 394 q 129 514 111 482 q 181 569 147 546 q 262 607 214 593 q 369 621 310 621 q 513 603 449 621 q 615 571 576 586 l 633 411 l 590 411 q 488 469 546 443 q 369 494 431 494 q 318 488 336 494 q 291 474 300 482 q 281 457 282 465 q 279 444 279 449 q 298 417 279 431 q 342 392 317 404 q 392 372 367 381 q 429 360 417 364 q 506 331 465 347 q 579 293 546 315 q 634 240 613 271 q 656 165 656 208 z "},"Ÿ":{"ha":810,"x_min":28,"x_max":782,"o":"m 614 760 q 590 700 614 724 q 529 676 565 676 q 469 700 493 676 q 446 760 446 724 q 469 820 446 796 q 529 844 493 844 q 590 820 565 844 q 614 760 614 796 m 367 760 q 342 700 367 724 q 282 676 318 676 q 222 700 246 676 q 199 760 199 724 q 222 820 199 796 q 282 844 246 844 q 342 820 318 844 q 367 760 367 796 m 357 -278 l 207 -278 l 207 -235 l 318 -14 l 28 565 l 28 608 l 186 608 l 401 163 l 410 163 l 625 608 l 782 608 l 782 565 l 357 -278 z "},"Ž":{"ha":735,"x_min":83,"x_max":679,"o":"m 442 671 l 328 671 l 160 863 l 160 906 l 285 906 l 381 771 l 389 771 l 485 906 l 608 906 l 608 863 l 442 671 m 83 0 l 83 99 l 425 472 l 425 481 l 92 481 l 92 524 l 117 608 l 649 608 l 649 497 l 308 136 l 308 128 l 679 128 l 679 0 l 83 0 z "},"ž":{"ha":735,"x_min":83,"x_max":679,"o":"m 442 671 l 328 671 l 160 863 l 160 906 l 285 906 l 381 771 l 389 771 l 485 906 l 608 906 l 608 863 l 442 671 m 83 0 l 83 99 l 425 472 l 425 481 l 92 481 l 92 524 l 117 608 l 649 608 l 649 497 l 308 136 l 308 128 l 679 128 l 679 0 l 83 0 z "},"ƒ":{"ha":667,"x_min":-28,"x_max":667,"o":"m 624 589 q 557 625 596 610 q 481 640 518 640 q 428 631 449 640 q 394 605 407 621 q 377 570 382 589 q 372 533 372 551 l 372 367 l 590 367 l 590 242 l 372 242 l 372 15 q 358 -70 372 -29 q 314 -143 343 -111 q 242 -194 285 -175 q 142 -214 199 -214 q 92 -212 113 -214 q 53 -205 72 -210 q 16 -192 35 -200 q -28 -175 -3 -185 l -28 -33 l 15 -33 q 72 -70 47 -56 q 142 -85 97 -85 q 205 -58 182 -85 q 228 15 228 -31 l 228 242 l 113 242 l 113 367 l 228 367 l 228 533 q 241 613 228 571 q 284 689 254 654 q 362 747 314 724 q 481 769 410 769 q 588 757 544 769 q 667 731 631 744 l 667 589 l 624 589 z "},"ˆ":{"ha":560,"x_min":56,"x_max":504,"o":"m 379 671 l 283 806 l 275 806 l 179 671 l 56 671 l 56 714 l 222 906 l 336 906 l 504 714 l 504 671 l 379 671 z "},"˜":{"ha":567,"x_min":56,"x_max":511,"o":"m 511 756 q 490 731 503 744 q 461 704 478 717 q 424 683 444 692 q 378 675 403 675 q 322 686 346 675 q 277 710 299 697 q 235 735 256 724 q 189 746 214 746 q 144 726 165 746 q 99 674 122 706 l 56 674 l 56 788 q 78 813 65 799 q 106 839 90 826 q 142 860 122 851 q 189 868 163 868 q 244 857 219 868 q 290 833 268 846 q 332 808 311 819 q 378 797 353 797 q 423 817 401 797 q 468 869 444 838 l 511 869 l 511 756 z "},"–":{"ha":789,"x_min":28,"x_max":761,"o":"m 28 229 l 28 381 l 761 381 l 761 229 l 28 229 z "},"—":{"ha":1174,"x_min":28,"x_max":1146,"o":"m 28 229 l 28 381 l 1146 381 l 1146 229 l 28 229 z "},"‘":{"ha":344,"x_min":56,"x_max":289,"o":"m 289 435 q 263 367 289 394 q 196 340 236 340 q 131 356 157 340 q 88 397 104 372 q 63 449 71 421 q 56 504 56 478 q 83 627 56 569 q 154 717 110 685 l 179 735 l 244 661 l 224 642 q 197 606 207 626 q 186 561 186 585 q 197 528 186 538 q 260 500 232 525 q 289 435 289 475 z "},"’":{"ha":344,"x_min":51,"x_max":300,"o":"m 300 601 q 285 524 300 563 q 244 453 269 486 q 185 397 218 421 q 114 365 151 374 l 85 358 l 51 450 l 78 461 q 103 474 89 465 q 129 493 117 482 q 150 517 142 504 q 158 543 158 529 q 154 557 158 550 q 106 590 124 564 q 89 644 89 617 q 94 676 89 664 q 129 720 106 704 q 181 736 153 736 q 229 724 207 736 q 267 694 251 713 q 292 651 283 675 q 300 601 300 626 z "},"‚":{"ha":344,"x_min":56,"x_max":289,"o":"m 289 -3 q 262 -126 289 -68 q 190 -215 235 -183 l 165 -233 l 100 -160 l 121 -140 q 148 -104 138 -125 q 158 -60 158 -83 q 147 -26 158 -36 q 84 1 113 -24 q 56 67 56 26 q 82 134 56 107 q 149 161 108 161 q 214 145 188 161 q 257 105 240 129 q 281 52 274 81 q 289 -3 289 24 z "},"“":{"ha":658,"x_min":56,"x_max":603,"o":"m 603 435 q 576 367 603 394 q 510 340 550 340 q 444 356 471 340 q 401 397 418 372 q 377 449 385 421 q 369 504 369 478 q 397 627 369 569 q 468 717 424 685 l 493 735 l 558 661 l 538 642 q 510 606 521 626 q 500 561 500 585 q 511 528 500 538 q 574 500 546 525 q 603 435 603 475 m 289 435 q 263 367 289 394 q 196 340 236 340 q 131 356 157 340 q 88 397 104 372 q 63 449 71 421 q 56 504 56 478 q 83 627 56 569 q 154 717 110 685 l 179 735 l 244 661 l 224 642 q 197 606 207 626 q 186 561 186 585 q 197 528 186 538 q 260 500 232 525 q 289 435 289 475 z "},"”":{"ha":658,"x_min":69,"x_max":614,"o":"m 614 601 q 599 524 614 563 q 558 453 583 486 q 499 397 532 421 q 428 365 465 374 l 399 358 l 365 450 l 392 461 q 417 474 403 465 q 443 493 431 482 q 464 517 456 504 q 472 543 472 529 q 468 557 472 550 q 420 590 438 564 q 403 644 403 617 q 408 676 403 664 q 443 720 419 704 q 494 736 467 736 q 543 724 521 736 q 581 694 565 713 q 606 651 597 675 q 614 601 614 626 m 318 601 q 303 524 318 563 q 262 453 288 486 q 203 397 236 421 q 132 365 169 374 l 103 358 l 69 450 l 96 461 q 121 474 107 465 q 147 493 135 482 q 168 517 160 504 q 176 543 176 529 q 172 557 176 550 q 124 590 142 564 q 107 644 107 617 q 113 676 107 664 q 147 720 124 704 q 199 736 171 736 q 247 724 225 736 q 285 694 269 713 q 310 651 301 675 q 318 601 318 626 z "},"„":{"ha":658,"x_min":64,"x_max":594,"o":"m 594 -4 q 567 -127 594 -69 q 496 -217 540 -185 l 471 -235 l 404 -161 l 425 -142 q 453 -106 443 -126 q 464 -61 464 -85 q 453 -28 464 -37 q 389 0 418 -25 q 360 65 360 25 q 386 133 360 106 q 453 160 413 160 q 519 144 492 160 q 563 103 546 128 q 587 51 579 79 q 594 -4 594 22 m 299 -3 q 272 -126 299 -68 q 200 -215 244 -183 l 175 -233 l 108 -160 l 129 -140 q 158 -104 147 -125 q 168 -60 168 -83 q 157 -26 168 -36 q 93 1 122 -24 q 64 67 64 26 q 90 134 64 107 q 157 161 117 161 q 222 145 196 161 q 265 105 249 129 q 290 52 282 81 q 297 -3 297 24 l 299 -3 z "},"†":{"ha":729,"x_min":56,"x_max":674,"o":"m 536 238 l 414 263 q 425 205 417 235 q 444 153 433 175 l 444 50 l 406 -278 l 321 -278 l 283 50 l 282 153 q 303 204 293 174 q 317 263 314 235 l 192 238 l 56 238 l 56 392 l 192 392 l 307 369 l 281 471 l 281 608 l 446 608 l 446 471 l 421 369 l 536 392 l 674 392 l 674 238 l 536 238 z "},"‡":{"ha":729,"x_min":56,"x_max":674,"o":"m 536 64 l 414 86 l 444 -21 l 444 -71 l 406 -278 l 321 -278 l 282 -71 l 282 -21 l 317 86 l 192 64 l 56 64 l 56 213 l 192 213 l 314 193 l 307 292 l 192 269 l 56 269 l 56 418 l 192 418 l 307 399 l 281 485 l 281 608 l 446 608 l 446 485 l 421 399 l 536 418 l 674 418 l 674 269 l 536 269 l 414 292 l 407 193 l 536 213 l 674 213 l 674 64 l 536 64 z "},"•":{"ha":456,"x_min":83,"x_max":372,"o":"m 372 301 q 361 246 372 272 q 330 199 350 219 q 283 168 310 179 q 228 157 257 157 q 172 168 199 157 q 126 199 146 179 q 94 246 106 219 q 83 301 83 272 q 94 357 83 331 q 126 403 106 383 q 172 435 146 424 q 228 446 199 446 q 283 435 257 446 q 330 403 310 424 q 361 357 350 383 q 372 301 372 331 z "},"…":{"ha":926,"x_min":56,"x_max":871,"o":"m 871 97 q 842 28 871 57 q 774 0 814 0 q 706 28 733 0 q 678 97 678 57 q 706 165 678 138 q 774 193 733 193 q 842 165 814 193 q 871 97 871 138 m 560 97 q 531 28 560 57 q 463 0 503 0 q 394 28 422 0 q 367 97 367 57 q 394 165 367 138 q 463 193 422 193 q 531 165 503 193 q 560 97 560 138 m 249 97 q 220 28 249 57 q 151 0 192 0 q 83 28 111 0 q 56 97 56 57 q 83 165 56 138 q 151 193 111 193 q 220 165 192 193 q 249 97 249 138 z "},"‰":{"ha":1350,"x_min":56,"x_max":1294,"o":"m 1294 169 q 1287 110 1294 140 q 1260 55 1279 79 q 1209 15 1242 31 q 1125 0 1176 0 q 1041 15 1074 0 q 989 55 1008 31 q 962 110 969 79 q 954 169 954 140 q 962 230 954 200 q 989 284 969 260 q 1042 323 1008 308 q 1125 338 1075 338 q 1208 323 1175 338 q 1260 284 1242 308 q 1287 230 1279 260 q 1294 169 1294 200 m 889 169 q 881 110 889 140 q 855 55 874 79 q 803 15 836 31 q 719 0 771 0 q 635 15 668 0 q 583 55 603 31 q 556 110 564 79 q 549 169 549 140 q 556 230 549 200 q 583 284 564 260 q 636 323 603 308 q 719 338 669 338 q 803 323 769 338 q 855 284 836 308 q 881 230 874 260 q 889 169 889 200 m 278 -21 l 203 -21 l 203 6 l 640 636 l 711 636 l 711 603 l 278 -21 m 396 454 q 388 394 396 425 q 362 340 381 364 q 310 300 343 315 q 226 285 278 285 q 142 300 175 285 q 90 340 110 315 q 63 394 71 364 q 56 454 56 425 q 63 515 56 485 q 90 569 71 544 q 143 608 110 593 q 226 622 176 622 q 310 608 276 622 q 362 569 343 593 q 388 515 381 544 q 396 454 396 485 m 1188 169 q 1176 233 1188 214 q 1125 251 1164 251 q 1073 233 1085 251 q 1061 169 1061 214 q 1073 106 1061 125 q 1125 88 1085 88 q 1176 106 1164 88 q 1188 169 1188 125 m 782 169 q 770 233 782 214 q 719 251 758 251 q 667 233 679 251 q 656 169 656 214 q 667 106 656 125 q 719 88 679 88 q 770 106 758 88 q 782 169 782 125 m 289 454 q 277 517 289 499 q 226 536 265 536 q 174 517 186 536 q 163 454 163 499 q 175 391 163 410 q 226 372 188 372 q 277 391 265 372 q 289 454 289 410 z "},"‹":{"ha":457,"x_min":56,"x_max":401,"o":"m 268 89 l 56 308 l 268 528 l 401 528 l 401 485 l 211 308 l 401 132 l 401 89 l 268 89 z "},"›":{"ha":457,"x_min":56,"x_max":401,"o":"m 189 89 l 56 89 l 56 132 l 246 308 l 56 485 l 56 528 l 189 528 l 401 308 l 189 89 z "},"€":{"ha":788,"x_min":63,"x_max":735,"o":"m 735 31 q 660 7 693 15 q 599 -6 626 -1 q 549 -12 572 -11 q 503 -14 525 -14 q 288 42 381 -14 q 158 197 194 97 l 63 197 l 63 281 l 142 281 q 141 292 142 286 q 140 303 140 297 q 140 317 140 310 q 142 332 140 325 l 63 332 l 63 415 l 160 415 q 211 502 178 464 q 290 567 244 540 q 389 607 335 593 q 503 621 443 621 q 551 619 528 621 q 602 614 575 618 q 661 601 629 610 q 735 576 693 592 l 735 431 l 693 431 q 638 456 663 444 q 592 475 614 468 q 548 486 569 482 q 503 490 526 490 q 333 415 385 490 l 576 415 l 576 332 l 303 332 q 301 317 301 325 q 301 303 301 310 q 302 291 301 296 q 303 281 303 286 l 576 281 l 576 197 l 326 197 q 395 137 350 157 q 503 117 440 117 q 590 132 547 117 q 693 176 632 147 l 735 176 l 735 31 z "},"™":{"ha":775,"x_min":28,"x_max":733,"o":"m 646 571 l 646 740 l 574 571 l 524 571 l 453 740 l 453 571 l 365 571 l 365 878 l 481 878 l 550 714 l 618 878 l 733 878 l 733 571 l 646 571 m 215 792 l 215 571 l 128 571 l 128 792 l 28 792 l 28 878 l 317 878 l 317 792 l 215 792 z "}}}
